<?xml version="1.0" encoding="UTF-8" standalone="no"?>
<!DOCTYPE svg PUBLIC "-//W3C//DTD SVG 1.1//EN" "http://www.w3.org/Graphics/SVG/1.1/DTD/svg11.dtd">
<!-- Created with Vectornator (http://vectornator.io/) -->
<svg height="100%" stroke-miterlimit="10" style="fill-rule:nonzero;clip-rule:evenodd;stroke-linecap:round;stroke-linejoin:round;" version="1.1" viewBox="0 0 356.983 15.9025" width="100%" xml:space="preserve" xmlns="http://www.w3.org/2000/svg" xmlns:vectornator="http://vectornator.io" xmlns:xlink="http://www.w3.org/1999/xlink">
<defs/>
<clipPath id="ArtboardFrame">
<rect height="15.9025" width="356.983" x="0" y="0"/>
</clipPath>
<g clip-path="url(#ArtboardFrame)" id="Untitled" vectornator:layerName="Untitled">
<path d="M6.39062 14.6562L0 14.6562L0 13.9375C0.40625 13.9297 0.726563 13.8906 0.96875 13.8281C1.21875 13.7656 1.40625 13.6484 1.53125 13.4688C1.66406 13.2812 1.75391 13.0273 1.79688 12.7031C1.84766 12.3711 1.875 11.9297 1.875 11.375L1.875 4.1875C1.875 3.6875 1.85156 3.27734 1.8125 2.95312C1.76953 2.62109 1.6875 2.35938 1.5625 2.17188C1.44531 1.97656 1.28125 1.83984 1.0625 1.76562C0.84375 1.68359 0.550781 1.63281 0.1875 1.60938L0.1875 0.890625L6.20312 0.890625L6.20312 1.60938C5.83594 1.63281 5.53906 1.68359 5.3125 1.76562C5.09375 1.83984 4.92188 1.97656 4.79688 2.17188C4.67969 2.35938 4.60156 2.62109 4.5625 2.95312C4.51953 3.27734 4.5 3.6875 4.5 4.1875L4.5 11.375C4.5 11.9297 4.51953 12.3711 4.5625 12.7031C4.60156 13.0273 4.69141 13.2812 4.82812 13.4688C4.97266 13.6484 5.16406 13.7656 5.40625 13.8281C5.65625 13.8906 5.98438 13.9297 6.39062 13.9375L6.39062 14.6562Z" fill="#ffffff" fill-rule="nonzero" opacity="1" stroke="none" vectornator:layerName="path"/>
<path d="M14.8542 14.8281C13.78 14.8281 12.8112 14.6719 11.9479 14.3594C11.0807 14.0469 10.3464 13.6016 9.7448 13.0156C9.15105 12.4219 8.6862 11.7031 8.35417 10.8594C8.02995 10.0156 7.8698 9.07422 7.8698 8.03125C7.8698 6.9375 8.04167 5.94531 8.38542 5.04688C8.73698 4.15234 9.23308 3.38281 9.8698 2.73438C10.5026 2.08984 11.2604 1.59375 12.1354 1.25C13.0182 0.898438 13.9987 0.71875 15.0729 0.71875C15.8112 0.71875 16.5143 0.824219 17.1823 1.03125C17.8464 1.23047 18.5651 1.55469 19.3385 2L19.6823 0.890625L20.3229 0.890625L20.3229 5.42188L19.4323 5.42188C19.1901 4.29688 18.7135 3.42969 17.9948 2.8125C17.276 2.1875 16.3737 1.875 15.2917 1.875C13.9167 1.875 12.8464 2.40625 12.0885 3.46875C11.3385 4.52344 10.9635 5.99219 10.9635 7.875C10.9635 9.74219 11.3307 11.168 12.0729 12.1562C12.8112 13.1484 13.8854 13.6406 15.2917 13.6406C16.2995 13.6406 17.0885 13.3828 17.651 12.8594C18.2135 12.3398 18.4948 11.6211 18.4948 10.7031C18.4948 10.1641 18.3542 9.76172 18.0729 9.5C17.7917 9.24219 17.3073 9.08594 16.6198 9.03125L16.6198 8.3125L22.4167 8.3125L22.4167 9.03125C21.8307 9.03125 21.4245 9.16406 21.1979 9.42188C20.9675 9.67188 20.8542 10.1328 20.8542 10.7969L20.8542 13.1719C20.5925 13.1719 20.3737 13.1836 20.1979 13.2031C20.0182 13.2148 19.8425 13.25 19.6667 13.3125C19.4987 13.3672 19.3073 13.4531 19.0885 13.5781C18.8776 13.6953 18.612 13.8438 18.2917 14.0312C17.3737 14.5625 16.2292 14.8281 14.8542 14.8281Z" fill="#ffffff" fill-rule="nonzero" opacity="1" stroke="none" vectornator:layerName="path"/>
<path d="M34.6498 14.8281L26.7436 3.5625L26.6654 3.5625L26.6654 11.2344C26.6654 11.8398 26.685 12.3125 26.7279 12.6562C26.767 13 26.8568 13.2734 26.9936 13.4688C27.1264 13.6562 27.3139 13.7812 27.5561 13.8438C27.8061 13.8984 28.1264 13.9297 28.5248 13.9375L28.5248 14.6562L23.2123 14.6562L23.2123 13.9375C23.6576 13.9297 24.0131 13.8906 24.2748 13.8281C24.5443 13.7656 24.7514 13.6484 24.8998 13.4688C25.0561 13.2812 25.1537 13.0273 25.1967 12.7031C25.2475 12.3711 25.2748 11.9297 25.2748 11.375L25.2748 4.1875C25.2748 3.6875 25.2475 3.27734 25.1967 2.95312C25.1537 2.62109 25.0639 2.35938 24.9311 2.17188C24.8061 1.97656 24.6186 1.83984 24.3686 1.76562C24.1264 1.68359 23.8061 1.63281 23.3998 1.60938L23.3998 0.890625L28.3842 0.890625L35.5873 11.2188L35.6654 11.2188L35.6654 4.3125C35.6654 3.73047 35.642 3.26172 35.6029 2.90625C35.56 2.55469 35.4662 2.28125 35.3217 2.09375C35.185 1.89844 34.9936 1.77344 34.7436 1.71875C34.5014 1.65625 34.1889 1.62109 33.8061 1.60938L33.8061 0.890625L39.1029 0.890625L39.1029 1.60938C38.6654 1.62109 38.31 1.66406 38.0404 1.73438C37.7787 1.79688 37.5717 1.91797 37.4154 2.09375C37.267 2.27344 37.1693 2.52734 37.1186 2.85938C37.0756 3.19531 37.0561 3.63672 37.0561 4.1875L37.0561 14.8281L34.6498 14.8281Z" fill="#ffffff" fill-rule="nonzero" opacity="1" stroke="none" vectornator:layerName="path"/>
<path d="M46.5111 14.6562L40.1204 14.6562L40.1204 13.9375C40.5267 13.9297 40.847 13.8906 41.0892 13.8281C41.3392 13.7656 41.5267 13.6484 41.6517 13.4688C41.7845 13.2812 41.8743 13.0273 41.9173 12.7031C41.9681 12.3711 41.9954 11.9297 41.9954 11.375L41.9954 4.1875C41.9954 3.6875 41.972 3.27734 41.9329 2.95312C41.89 2.62109 41.8079 2.35938 41.6829 2.17188C41.5658 1.97656 41.4017 1.83984 41.1829 1.76562C40.9642 1.68359 40.6712 1.63281 40.3079 1.60938L40.3079 0.890625L46.3236 0.890625L46.3236 1.60938C45.9564 1.63281 45.6595 1.68359 45.4329 1.76562C45.2142 1.83984 45.0423 1.97656 44.9173 2.17188C44.8001 2.35938 44.722 2.62109 44.6829 2.95312C44.64 3.27734 44.6204 3.6875 44.6204 4.1875L44.6204 11.375C44.6204 11.9297 44.64 12.3711 44.6829 12.7031C44.722 13.0273 44.8118 13.2812 44.9486 13.4688C45.0931 13.6484 45.2845 13.7656 45.5267 13.8281C45.7767 13.8906 46.1048 13.9297 46.5111 13.9375L46.5111 14.6562Z" fill="#ffffff" fill-rule="nonzero" opacity="1" stroke="none" vectornator:layerName="path"/>
<path d="M61.709 4.82812L60.9434 4.82812C60.9121 4.24609 60.8223 3.76172 60.6777 3.375C60.541 2.98047 60.3496 2.66797 60.0996 2.4375C59.8496 2.21094 59.5449 2.05469 59.1934 1.96875C58.8379 1.875 58.4199 1.82812 57.9434 1.82812C57.4746 1.82812 57.0996 1.83984 56.8184 1.85938C56.5449 1.87109 56.334 1.89844 56.1777 1.9375C56.0293 1.98047 55.9316 2.03906 55.8809 2.10938C55.8379 2.18359 55.8184 2.27344 55.8184 2.375L55.8184 11.75C55.8184 12.125 55.8418 12.4531 55.8965 12.7344C55.9473 13.0078 56.0566 13.2305 56.2246 13.4062C56.3887 13.5742 56.6348 13.7031 56.959 13.7969C57.2793 13.8828 57.7012 13.9297 58.2246 13.9375L58.2246 14.6562L50.7402 14.6562L50.7402 13.9375C51.2715 13.9297 51.6973 13.8828 52.0215 13.7969C52.3418 13.7031 52.5879 13.5742 52.7559 13.4062C52.9316 13.2305 53.0449 13.0078 53.0996 12.7344C53.1621 12.4531 53.1934 12.125 53.1934 11.75L53.1934 2.375C53.1934 2.27344 53.1699 2.18359 53.1309 2.10938C53.0879 2.03906 52.9981 1.98047 52.8652 1.9375C52.7285 1.89844 52.541 1.87109 52.3027 1.85938C52.0606 1.83984 51.7441 1.82812 51.3496 1.82812C50.9199 1.82812 50.5098 1.85156 50.1152 1.89062C49.7168 1.93359 49.3691 2.05469 49.0684 2.25C48.7754 2.4375 48.5371 2.73438 48.3496 3.14062C48.1621 3.53906 48.0606 4.10156 48.0527 4.82812L47.3652 4.82812L47.5371 0.890625L61.5371 0.890625L61.709 4.82812Z" fill="#ffffff" fill-rule="nonzero" opacity="1" stroke="none" vectornator:layerName="path"/>
<path d="M67.0508 7.04688C67.8204 7.04688 68.4336 7.02734 68.8946 6.98438C69.3633 6.93359 69.7227 6.83594 69.9727 6.6875C70.2305 6.53125 70.4141 6.3125 70.5196 6.03125C70.6329 5.74219 70.7149 5.35156 70.7696 4.85938L71.4414 4.85938L71.4414 10.0938L70.7696 10.0938C70.6954 9.625 70.6016 9.25 70.4883 8.96875C70.3711 8.67969 70.1797 8.46094 69.9102 8.3125C69.6485 8.15625 69.293 8.05859 68.8477 8.01562C68.3985 7.97656 67.8008 7.95312 67.0508 7.95312L67.0508 11.6406C67.0508 12.0156 67.1016 12.3398 67.2071 12.6094C67.3086 12.8711 67.4805 13.0781 67.7227 13.2344C67.961 13.3906 68.2735 13.5078 68.6602 13.5781C69.0547 13.6406 69.5391 13.6719 70.1133 13.6719C70.7891 13.6719 71.3633 13.625 71.8321 13.5312C72.3086 13.4375 72.6993 13.2734 73.0039 13.0312C73.3164 12.793 73.5664 12.4766 73.7539 12.0781C73.9493 11.6719 74.1133 11.168 74.2383 10.5625L74.9571 10.5625L74.6758 14.6562L62.5508 14.6562L62.5508 13.9375C62.9454 13.9297 63.2696 13.8984 63.5196 13.8438C63.7696 13.7812 63.9571 13.6797 64.0821 13.5312C64.2149 13.3867 64.3047 13.1836 64.3477 12.9219C64.3985 12.6641 64.4258 12.3242 64.4258 11.9062L64.4258 3.64062C64.4258 3.22656 64.4024 2.89062 64.3633 2.64062C64.3204 2.38281 64.2383 2.17969 64.1133 2.03125C63.9961 1.875 63.8321 1.77344 63.6133 1.71875C63.3946 1.66797 63.1055 1.63281 62.7539 1.60938L62.7539 0.890625L74.0508 0.890625L74.1758 4.39062L73.3946 4.39062C73.3321 3.89062 73.2227 3.48047 73.0664 3.15625C72.9102 2.82422 72.6914 2.5625 72.4102 2.375C72.1368 2.17969 71.7852 2.04297 71.3477 1.96875C70.918 1.88672 70.3868 1.84375 69.7539 1.84375L67.7383 1.84375C67.4258 1.84375 67.2305 1.88672 67.1602 1.96875C67.086 2.04297 67.0508 2.21875 67.0508 2.5L67.0508 7.04688Z" fill="#ffffff" fill-rule="nonzero" opacity="1" stroke="none" vectornator:layerName="path"/>
<path d="M83.9267 0L83.9267 19.125L82.0205 19.125L82.0205 0L83.9267 0Z" fill="#ffffff" fill-rule="nonzero" opacity="1" stroke="none" vectornator:layerName="path"/>
<path d="M97.3899 14.6562L90.9992 14.6562L90.9992 13.9375C91.4055 13.9297 91.7258 13.8906 91.968 13.8281C92.218 13.7656 92.4055 13.6484 92.5305 13.4688C92.6633 13.2812 92.7531 13.0273 92.7961 12.7031C92.8469 12.3711 92.8742 11.9297 92.8742 11.375L92.8742 4.1875C92.8742 3.6875 92.8508 3.27734 92.8117 2.95312C92.7688 2.62109 92.6867 2.35938 92.5617 2.17188C92.4446 1.97656 92.2805 1.83984 92.0617 1.76562C91.843 1.68359 91.55 1.63281 91.1867 1.60938L91.1867 0.890625L97.2024 0.890625L97.2024 1.60938C96.8352 1.63281 96.5383 1.68359 96.3117 1.76562C96.093 1.83984 95.9211 1.97656 95.7961 2.17188C95.6789 2.35938 95.6008 2.62109 95.5617 2.95312C95.5188 3.27734 95.4992 3.6875 95.4992 4.1875L95.4992 11.375C95.4992 11.9297 95.5188 12.3711 95.5617 12.7031C95.6008 13.0273 95.6906 13.2812 95.8274 13.4688C95.9719 13.6484 96.1633 13.7656 96.4055 13.8281C96.6555 13.8906 96.9836 13.9297 97.3899 13.9375L97.3899 14.6562Z" fill="#ffffff" fill-rule="nonzero" opacity="1" stroke="none" vectornator:layerName="path"/>
<path d="M109.994 14.8281L102.088 3.5625L102.01 3.5625L102.01 11.2344C102.01 11.8398 102.029 12.3125 102.072 12.6562C102.111 13 102.201 13.2734 102.338 13.4688C102.471 13.6562 102.658 13.7812 102.9 13.8438C103.15 13.8984 103.471 13.9297 103.869 13.9375L103.869 14.6562L98.5565 14.6562L98.5565 13.9375C99.0019 13.9297 99.3573 13.8906 99.619 13.8281C99.8886 13.7656 100.096 13.6484 100.244 13.4688C100.4 13.2812 100.498 13.0273 100.541 12.7031C100.592 12.3711 100.619 11.9297 100.619 11.375L100.619 4.1875C100.619 3.6875 100.592 3.27734 100.541 2.95312C100.498 2.62109 100.408 2.35938 100.275 2.17188C100.15 1.97656 99.9628 1.83984 99.7128 1.76562C99.4706 1.68359 99.1503 1.63281 98.744 1.60938L98.744 0.890625L103.728 0.890625L110.932 11.2188L111.01 11.2188L111.01 4.3125C111.01 3.73047 110.986 3.26172 110.947 2.90625C110.904 2.55469 110.81 2.28125 110.666 2.09375C110.529 1.89844 110.338 1.77344 110.088 1.71875C109.846 1.65625 109.533 1.62109 109.15 1.60938L109.15 0.890625L114.447 0.890625L114.447 1.60938C114.01 1.62109 113.654 1.66406 113.385 1.73438C113.123 1.79688 112.916 1.91797 112.76 2.09375C112.611 2.27344 112.514 2.52734 112.463 2.85938C112.42 3.19531 112.4 3.63672 112.4 4.1875L112.4 14.8281L109.994 14.8281Z" fill="#ffffff" fill-rule="nonzero" opacity="1" stroke="none" vectornator:layerName="path"/>
<path d="M126.793 14.8281L118.887 3.5625L118.808 3.5625L118.808 11.2344C118.808 11.8398 118.828 12.3125 118.871 12.6562C118.91 13 119 13.2734 119.137 13.4688C119.269 13.6562 119.457 13.7812 119.699 13.8438C119.949 13.8984 120.269 13.9297 120.668 13.9375L120.668 14.6562L115.355 14.6562L115.355 13.9375C115.801 13.9297 116.156 13.8906 116.418 13.8281C116.687 13.7656 116.894 13.6484 117.043 13.4688C117.199 13.2812 117.297 13.0273 117.34 12.7031C117.39 12.3711 117.418 11.9297 117.418 11.375L117.418 4.1875C117.418 3.6875 117.39 3.27734 117.34 2.95312C117.297 2.62109 117.207 2.35938 117.074 2.17188C116.949 1.97656 116.762 1.83984 116.512 1.76562C116.269 1.68359 115.949 1.63281 115.543 1.60938L115.543 0.890625L120.527 0.890625L127.73 11.2188L127.808 11.2188L127.808 4.3125C127.808 3.73047 127.785 3.26172 127.746 2.90625C127.703 2.55469 127.609 2.28125 127.465 2.09375C127.328 1.89844 127.137 1.77344 126.887 1.71875C126.644 1.65625 126.332 1.62109 125.949 1.60938L125.949 0.890625L131.246 0.890625L131.246 1.60938C130.808 1.62109 130.453 1.66406 130.183 1.73438C129.922 1.79688 129.715 1.91797 129.558 2.09375C129.41 2.27344 129.312 2.52734 129.262 2.85938C129.219 3.19531 129.199 3.63672 129.199 4.1875L129.199 14.8281L126.793 14.8281Z" fill="#ffffff" fill-rule="nonzero" opacity="1" stroke="none" vectornator:layerName="path"/>
<path d="M140.06 0.71875C141.131 0.71875 142.131 0.90625 143.06 1.28125C143.986 1.64844 144.795 2.15234 145.482 2.79688C146.17 3.43359 146.705 4.1875 147.092 5.0625C147.486 5.92969 147.685 6.86719 147.685 7.875C147.685 8.84375 147.486 9.75781 147.092 10.6094C146.693 11.4531 146.154 12.1875 145.467 12.8125C144.779 13.4375 143.97 13.9336 143.045 14.2969C142.115 14.6523 141.123 14.8281 140.06 14.8281C138.998 14.8281 138.002 14.6523 137.076 14.2969C136.146 13.9336 135.334 13.4375 134.638 12.8125C133.951 12.1875 133.408 11.4531 133.013 10.6094C132.615 9.75781 132.42 8.84375 132.42 7.875C132.42 6.86719 132.615 5.92969 133.013 5.0625C133.408 4.1875 133.951 3.43359 134.638 2.79688C135.326 2.15234 136.131 1.64844 137.06 1.28125C137.986 0.90625 138.986 0.71875 140.06 0.71875ZM140.06 13.6719C140.748 13.6719 141.373 13.543 141.935 13.2812C142.498 13.0117 142.97 12.6328 143.357 12.1406C143.752 11.6406 144.052 11.0391 144.263 10.3281C144.47 9.62109 144.576 8.82422 144.576 7.9375C144.576 7.01172 144.47 6.17969 144.263 5.4375C144.052 4.6875 143.752 4.04688 143.357 3.51562C142.97 2.98438 142.498 2.57812 141.935 2.29688C141.373 2.01562 140.748 1.875 140.06 1.875C139.349 1.875 138.72 2.01562 138.17 2.29688C137.615 2.57812 137.142 2.98438 136.748 3.51562C136.361 4.04688 136.064 4.6875 135.857 5.4375C135.646 6.17969 135.545 7.01172 135.545 7.9375C135.545 8.82422 135.646 9.62109 135.857 10.3281C136.064 11.0391 136.361 11.6406 136.748 12.1406C137.142 12.6328 137.615 13.0117 138.17 13.2812C138.72 13.543 139.349 13.6719 140.06 13.6719Z" fill="#ffffff" fill-rule="nonzero" opacity="1" stroke="none" vectornator:layerName="path"/>
<path d="M156.303 11.5781L158.631 5.625C158.858 5.04297 159.042 4.57031 159.178 4.20312C159.311 3.82812 159.417 3.52734 159.491 3.29688C159.561 3.05859 159.608 2.86719 159.631 2.71875C159.651 2.57422 159.663 2.43359 159.663 2.29688C159.663 2.01562 159.553 1.83594 159.335 1.75C159.124 1.65625 158.698 1.60938 158.053 1.60938L158.053 0.890625L163.131 0.890625L163.131 1.60938C162.139 1.60938 161.46 2.09375 161.085 3.0625L156.381 14.8281L155.053 14.8281L150.788 4.39062C150.545 3.83984 150.327 3.38672 150.131 3.03125C149.944 2.66797 149.741 2.38281 149.522 2.17188C149.311 1.96484 149.077 1.82422 148.819 1.75C148.569 1.66797 148.272 1.625 147.928 1.625L147.928 0.890625L154.678 0.890625L154.678 1.625C154.366 1.63672 154.104 1.65625 153.897 1.6875C153.686 1.71094 153.522 1.74609 153.397 1.79688C153.28 1.85156 153.198 1.92188 153.147 2.01562C153.104 2.10156 153.085 2.21094 153.085 2.34375C153.085 2.51172 153.116 2.71094 153.178 2.9375C153.241 3.15625 153.327 3.42969 153.444 3.75L156.303 11.5781Z" fill="#ffffff" fill-rule="nonzero" opacity="1" stroke="none" vectornator:layerName="path"/>
<path d="M171.814 10.4844L166.752 10.4844C166.197 11.7578 165.924 12.6367 165.924 13.125C165.924 13.4805 166.053 13.7031 166.314 13.7969C166.584 13.8906 166.99 13.9375 167.533 13.9375L167.533 14.6562L162.627 14.6562L162.627 13.9375C162.916 13.9062 163.166 13.8594 163.377 13.7969C163.584 13.7344 163.768 13.6523 163.924 13.5469C164.088 13.4453 164.229 13.3086 164.346 13.1406C164.459 12.9648 164.572 12.75 164.689 12.5L169.393 0.71875L170.705 0.71875L174.986 11.1562C175.236 11.7617 175.443 12.2344 175.611 12.5781C175.787 12.9219 175.975 13.1875 176.174 13.375C176.369 13.5625 176.596 13.6953 176.846 13.7656C177.104 13.8398 177.439 13.8906 177.846 13.9219L177.846 14.6562L171.08 14.6562L171.08 13.9219C171.65 13.9023 172.064 13.8438 172.314 13.75C172.564 13.6562 172.689 13.4648 172.689 13.1719C172.689 13.0078 172.647 12.793 172.564 12.5312C172.479 12.2734 172.365 11.9492 172.221 11.5625L171.814 10.4844ZM167.174 9.42188L171.424 9.42188L169.361 4L169.299 4L167.174 9.42188Z" fill="#ffffff" fill-rule="nonzero" opacity="1" stroke="none" vectornator:layerName="path"/>
<path d="M191.882 4.82812L191.116 4.82812C191.085 4.24609 190.995 3.76172 190.85 3.375C190.714 2.98047 190.522 2.66797 190.272 2.4375C190.022 2.21094 189.717 2.05469 189.366 1.96875C189.01 1.875 188.592 1.82812 188.116 1.82812C187.647 1.82812 187.272 1.83984 186.991 1.85938C186.717 1.87109 186.507 1.89844 186.35 1.9375C186.202 1.98047 186.104 2.03906 186.053 2.10938C186.01 2.18359 185.991 2.27344 185.991 2.375L185.991 11.75C185.991 12.125 186.014 12.4531 186.069 12.7344C186.12 13.0078 186.229 13.2305 186.397 13.4062C186.561 13.5742 186.807 13.7031 187.132 13.7969C187.452 13.8828 187.874 13.9297 188.397 13.9375L188.397 14.6562L180.913 14.6562L180.913 13.9375C181.444 13.9297 181.87 13.8828 182.194 13.7969C182.514 13.7031 182.76 13.5742 182.928 13.4062C183.104 13.2305 183.217 13.0078 183.272 12.7344C183.335 12.4531 183.366 12.125 183.366 11.75L183.366 2.375C183.366 2.27344 183.342 2.18359 183.303 2.10938C183.26 2.03906 183.171 1.98047 183.038 1.9375C182.901 1.89844 182.714 1.87109 182.475 1.85938C182.233 1.83984 181.917 1.82812 181.522 1.82812C181.092 1.82812 180.682 1.85156 180.288 1.89062C179.889 1.93359 179.542 2.05469 179.241 2.25C178.948 2.4375 178.71 2.73438 178.522 3.14062C178.335 3.53906 178.233 4.10156 178.225 4.82812L177.538 4.82812L177.71 0.890625L191.71 0.890625L191.882 4.82812Z" fill="#ffffff" fill-rule="nonzero" opacity="1" stroke="none" vectornator:layerName="path"/>
<path d="M197.223 7.04688C197.993 7.04688 198.606 7.02734 199.067 6.98438C199.536 6.93359 199.895 6.83594 200.145 6.6875C200.403 6.53125 200.587 6.3125 200.692 6.03125C200.805 5.74219 200.887 5.35156 200.942 4.85938L201.614 4.85938L201.614 10.0938L200.942 10.0938C200.868 9.625 200.774 9.25 200.661 8.96875C200.544 8.67969 200.352 8.46094 200.083 8.3125C199.821 8.15625 199.466 8.05859 199.02 8.01562C198.571 7.97656 197.973 7.95312 197.223 7.95312L197.223 11.6406C197.223 12.0156 197.274 12.3398 197.38 12.6094C197.481 12.8711 197.653 13.0781 197.895 13.2344C198.133 13.3906 198.446 13.5078 198.833 13.5781C199.227 13.6406 199.712 13.6719 200.286 13.6719C200.962 13.6719 201.536 13.625 202.005 13.5312C202.481 13.4375 202.872 13.2734 203.176 13.0312C203.489 12.793 203.739 12.4766 203.926 12.0781C204.122 11.6719 204.286 11.168 204.411 10.5625L205.13 10.5625L204.848 14.6562L192.723 14.6562L192.723 13.9375C193.118 13.9297 193.442 13.8984 193.692 13.8438C193.942 13.7812 194.13 13.6797 194.255 13.5312C194.387 13.3867 194.477 13.1836 194.52 12.9219C194.571 12.6641 194.598 12.3242 194.598 11.9062L194.598 3.64062C194.598 3.22656 194.575 2.89062 194.536 2.64062C194.493 2.38281 194.411 2.17969 194.286 2.03125C194.169 1.875 194.005 1.77344 193.786 1.71875C193.567 1.66797 193.278 1.63281 192.926 1.60938L192.926 0.890625L204.223 0.890625L204.348 4.39062L203.567 4.39062C203.505 3.89062 203.395 3.48047 203.239 3.15625C203.083 2.82422 202.864 2.5625 202.583 2.375C202.309 2.17969 201.958 2.04297 201.52 1.96875C201.091 1.88672 200.559 1.84375 199.926 1.84375L197.911 1.84375C197.598 1.84375 197.403 1.88672 197.333 1.96875C197.258 2.04297 197.223 2.21875 197.223 2.5L197.223 7.04688Z" fill="#ffffff" fill-rule="nonzero" opacity="1" stroke="none" vectornator:layerName="path"/>
<path d="M214.099 0L214.099 19.125L212.193 19.125L212.193 0L214.099 0Z" fill="#ffffff" fill-rule="nonzero" opacity="1" stroke="none" vectornator:layerName="path"/>
<path d="M227.562 14.6562L221.172 14.6562L221.172 13.9375C221.578 13.9297 221.898 13.8906 222.141 13.8281C222.391 13.7656 222.578 13.6484 222.703 13.4688C222.836 13.2812 222.926 13.0273 222.969 12.7031C223.019 12.3711 223.047 11.9297 223.047 11.375L223.047 4.1875C223.047 3.6875 223.023 3.27734 222.984 2.95312C222.941 2.62109 222.859 2.35938 222.734 2.17188C222.617 1.97656 222.453 1.83984 222.234 1.76562C222.016 1.68359 221.723 1.63281 221.359 1.60938L221.359 0.890625L227.375 0.890625L227.375 1.60938C227.008 1.63281 226.711 1.68359 226.484 1.76562C226.266 1.83984 226.094 1.97656 225.969 2.17188C225.851 2.35938 225.773 2.62109 225.734 2.95312C225.691 3.27734 225.672 3.6875 225.672 4.1875L225.672 11.375C225.672 11.9297 225.691 12.3711 225.734 12.7031C225.773 13.0273 225.863 13.2812 226 13.4688C226.144 13.6484 226.336 13.7656 226.578 13.8281C226.828 13.8906 227.156 13.9297 227.562 13.9375L227.562 14.6562Z" fill="#ffffff" fill-rule="nonzero" opacity="1" stroke="none" vectornator:layerName="path"/>
<path d="M238.588 11.3125L242.713 0.890625L247.932 0.890625L247.932 1.60938C247.534 1.60938 247.213 1.65234 246.963 1.73438C246.721 1.80859 246.534 1.94922 246.401 2.15625C246.276 2.35547 246.19 2.63281 246.151 2.98438C246.108 3.32812 246.088 3.77344 246.088 4.3125L246.088 11.2344C246.088 11.8398 246.108 12.3125 246.151 12.6562C246.202 13 246.299 13.2734 246.448 13.4688C246.592 13.6562 246.795 13.7812 247.057 13.8438C247.327 13.8984 247.686 13.9297 248.135 13.9375L248.135 14.6562L241.401 14.6562L241.401 13.9375C241.846 13.9297 242.202 13.8906 242.463 13.8281C242.733 13.7656 242.94 13.6484 243.088 13.4688C243.245 13.2812 243.342 13.0273 243.385 12.7031C243.436 12.3711 243.463 11.9297 243.463 11.375L243.463 3L243.37 3L238.573 14.8281L237.245 14.8281L232.276 3L232.198 3L232.198 11.2344C232.198 11.8398 232.217 12.3125 232.26 12.6562C232.311 13 232.409 13.2734 232.557 13.4688C232.702 13.6562 232.905 13.7812 233.167 13.8438C233.436 13.8984 233.795 13.9297 234.245 13.9375L234.245 14.6562L228.729 14.6562L228.729 13.9375C229.174 13.9297 229.534 13.8906 229.807 13.8281C230.077 13.7656 230.284 13.6484 230.432 13.4688C230.588 13.2812 230.686 13.0273 230.729 12.7031C230.78 12.3711 230.807 11.9297 230.807 11.375L230.807 4.1875C230.807 3.6875 230.78 3.27344 230.729 2.9375C230.686 2.60547 230.596 2.33984 230.463 2.14062C230.338 1.94531 230.151 1.80859 229.901 1.73438C229.659 1.65234 229.338 1.60938 228.932 1.60938L228.932 0.890625L234.354 0.890625L238.51 11.3125L238.588 11.3125Z" fill="#ffffff" fill-rule="nonzero" opacity="1" stroke="none" vectornator:layerName="path"/>
<path d="M261.176 4.71875C261.176 6 260.676 6.98047 259.676 7.65625C258.676 8.33594 257.223 8.67188 255.316 8.67188L253.785 8.67188L253.785 11.8125C253.785 12.2734 253.816 12.6406 253.879 12.9219C253.941 13.1953 254.066 13.4062 254.254 13.5625C254.441 13.7188 254.699 13.8242 255.035 13.875C255.367 13.918 255.816 13.9375 256.379 13.9375L256.379 14.6562L249.285 14.6562L249.285 13.9375C249.68 13.9297 250.004 13.8984 250.254 13.8438C250.504 13.7812 250.691 13.6797 250.816 13.5312C250.949 13.3867 251.039 13.1836 251.082 12.9219C251.133 12.6641 251.16 12.3242 251.16 11.9062L251.16 3.64062C251.16 3.22656 251.137 2.89062 251.098 2.64062C251.055 2.38281 250.973 2.17969 250.848 2.03125C250.73 1.875 250.566 1.77344 250.348 1.71875C250.129 1.66797 249.84 1.63281 249.488 1.60938L249.488 0.890625L255.66 0.890625C257.473 0.890625 258.84 1.21484 259.769 1.85938C260.707 2.50781 261.176 3.46094 261.176 4.71875ZM253.785 7.59375L254.957 7.59375C256.113 7.59375 256.957 7.36719 257.488 6.90625C258.027 6.4375 258.301 5.70312 258.301 4.70312C258.301 3.80859 258.07 3.11719 257.613 2.625C257.164 2.13672 256.457 1.89062 255.488 1.89062L254.113 1.89062C253.894 1.89062 253.785 1.99609 253.785 2.20312L253.785 7.59375Z" fill="#ffffff" fill-rule="nonzero" opacity="1" stroke="none" vectornator:layerName="path"/>
<path d="M274.411 14.6562L262.099 14.6562L262.099 13.9375C262.493 13.9297 262.817 13.8984 263.067 13.8438C263.317 13.7812 263.505 13.6797 263.63 13.5312C263.763 13.3867 263.853 13.1836 263.896 12.9219C263.946 12.6641 263.974 12.3242 263.974 11.9062L263.974 3.64062C263.974 3.22656 263.95 2.89062 263.911 2.64062C263.868 2.38281 263.786 2.17969 263.661 2.03125C263.544 1.875 263.38 1.77344 263.161 1.71875C262.942 1.66797 262.653 1.63281 262.302 1.60938L262.302 0.890625L268.458 0.890625L268.458 1.60938C268.052 1.62109 267.728 1.65625 267.489 1.71875C267.247 1.77344 267.06 1.875 266.927 2.03125C266.79 2.1875 266.7 2.40625 266.661 2.6875C266.618 2.96094 266.599 3.32031 266.599 3.76562L266.599 11.2656C266.599 11.7656 266.649 12.1719 266.755 12.4844C266.856 12.7969 267.036 13.043 267.286 13.2188C267.536 13.3867 267.868 13.5078 268.286 13.5781C268.7 13.6406 269.216 13.6719 269.833 13.6719C270.528 13.6719 271.106 13.6328 271.567 13.5469C272.036 13.4648 272.427 13.3086 272.739 13.0781C273.06 12.8398 273.317 12.5273 273.505 12.1406C273.692 11.7461 273.853 11.2305 273.989 10.5938L274.708 10.5938L274.411 14.6562Z" fill="#ffffff" fill-rule="nonzero" opacity="1" stroke="none" vectornator:layerName="path"/>
<path d="M280.091 7.04688C280.861 7.04688 281.474 7.02734 281.935 6.98438C282.404 6.93359 282.763 6.83594 283.013 6.6875C283.271 6.53125 283.455 6.3125 283.56 6.03125C283.673 5.74219 283.755 5.35156 283.81 4.85938L284.482 4.85938L284.482 10.0938L283.81 10.0938C283.736 9.625 283.642 9.25 283.529 8.96875C283.412 8.67969 283.22 8.46094 282.951 8.3125C282.689 8.15625 282.333 8.05859 281.888 8.01562C281.439 7.97656 280.841 7.95312 280.091 7.95312L280.091 11.6406C280.091 12.0156 280.142 12.3398 280.248 12.6094C280.349 12.8711 280.521 13.0781 280.763 13.2344C281.001 13.3906 281.314 13.5078 281.701 13.5781C282.095 13.6406 282.58 13.6719 283.154 13.6719C283.83 13.6719 284.404 13.625 284.873 13.5312C285.349 13.4375 285.74 13.2734 286.044 13.0312C286.357 12.793 286.607 12.4766 286.794 12.0781C286.99 11.6719 287.154 11.168 287.279 10.5625L287.998 10.5625L287.716 14.6562L275.591 14.6562L275.591 13.9375C275.986 13.9297 276.31 13.8984 276.56 13.8438C276.81 13.7812 276.998 13.6797 277.123 13.5312C277.255 13.3867 277.345 13.1836 277.388 12.9219C277.439 12.6641 277.466 12.3242 277.466 11.9062L277.466 3.64062C277.466 3.22656 277.443 2.89062 277.404 2.64062C277.361 2.38281 277.279 2.17969 277.154 2.03125C277.037 1.875 276.873 1.77344 276.654 1.71875C276.435 1.66797 276.146 1.63281 275.794 1.60938L275.794 0.890625L287.091 0.890625L287.216 4.39062L286.435 4.39062C286.373 3.89062 286.263 3.48047 286.107 3.15625C285.951 2.82422 285.732 2.5625 285.451 2.375C285.177 2.17969 284.826 2.04297 284.388 1.96875C283.958 1.88672 283.427 1.84375 282.794 1.84375L280.779 1.84375C280.466 1.84375 280.271 1.88672 280.201 1.96875C280.126 2.04297 280.091 2.21875 280.091 2.5L280.091 7.04688Z" fill="#ffffff" fill-rule="nonzero" opacity="1" stroke="none" vectornator:layerName="path"/>
<path d="M299.01 11.3125L303.135 0.890625L308.354 0.890625L308.354 1.60938C307.956 1.60938 307.635 1.65234 307.385 1.73438C307.143 1.80859 306.956 1.94922 306.823 2.15625C306.698 2.35547 306.612 2.63281 306.573 2.98438C306.53 3.32812 306.51 3.77344 306.51 4.3125L306.51 11.2344C306.51 11.8398 306.53 12.3125 306.573 12.6562C306.624 13 306.721 13.2734 306.87 13.4688C307.014 13.6562 307.217 13.7812 307.479 13.8438C307.749 13.8984 308.108 13.9297 308.557 13.9375L308.557 14.6562L301.823 14.6562L301.823 13.9375C302.268 13.9297 302.624 13.8906 302.885 13.8281C303.155 13.7656 303.362 13.6484 303.51 13.4688C303.667 13.2812 303.764 13.0273 303.807 12.7031C303.858 12.3711 303.885 11.9297 303.885 11.375L303.885 3L303.792 3L298.995 14.8281L297.667 14.8281L292.698 3L292.62 3L292.62 11.2344C292.62 11.8398 292.639 12.3125 292.682 12.6562C292.733 13 292.831 13.2734 292.979 13.4688C293.124 13.6562 293.327 13.7812 293.588 13.8438C293.858 13.8984 294.217 13.9297 294.667 13.9375L294.667 14.6562L289.151 14.6562L289.151 13.9375C289.596 13.9297 289.956 13.8906 290.229 13.8281C290.499 13.7656 290.706 13.6484 290.854 13.4688C291.01 13.2812 291.108 13.0273 291.151 12.7031C291.202 12.3711 291.229 11.9297 291.229 11.375L291.229 4.1875C291.229 3.6875 291.202 3.27344 291.151 2.9375C291.108 2.60547 291.018 2.33984 290.885 2.14062C290.76 1.94531 290.573 1.80859 290.323 1.73438C290.081 1.65234 289.76 1.60938 289.354 1.60938L289.354 0.890625L294.776 0.890625L298.932 11.3125L299.01 11.3125Z" fill="#ffffff" fill-rule="nonzero" opacity="1" stroke="none" vectornator:layerName="path"/>
<path d="M314.207 7.04688C314.977 7.04688 315.59 7.02734 316.051 6.98438C316.52 6.93359 316.879 6.83594 317.129 6.6875C317.387 6.53125 317.57 6.3125 317.676 6.03125C317.789 5.74219 317.871 5.35156 317.926 4.85938L318.598 4.85938L318.598 10.0938L317.926 10.0938C317.852 9.625 317.758 9.25 317.645 8.96875C317.527 8.67969 317.336 8.46094 317.066 8.3125C316.805 8.15625 316.449 8.05859 316.004 8.01562C315.555 7.97656 314.957 7.95312 314.207 7.95312L314.207 11.6406C314.207 12.0156 314.258 12.3398 314.363 12.6094C314.465 12.8711 314.637 13.0781 314.879 13.2344C315.117 13.3906 315.43 13.5078 315.816 13.5781C316.211 13.6406 316.695 13.6719 317.27 13.6719C317.945 13.6719 318.52 13.625 318.988 13.5312C319.465 13.4375 319.856 13.2734 320.16 13.0312C320.473 12.793 320.723 12.4766 320.91 12.0781C321.106 11.6719 321.27 11.168 321.395 10.5625L322.113 10.5625L321.832 14.6562L309.707 14.6562L309.707 13.9375C310.102 13.9297 310.426 13.8984 310.676 13.8438C310.926 13.7812 311.113 13.6797 311.238 13.5312C311.371 13.3867 311.461 13.1836 311.504 12.9219C311.555 12.6641 311.582 12.3242 311.582 11.9062L311.582 3.64062C311.582 3.22656 311.559 2.89062 311.52 2.64062C311.477 2.38281 311.395 2.17969 311.27 2.03125C311.152 1.875 310.988 1.77344 310.77 1.71875C310.551 1.66797 310.262 1.63281 309.91 1.60938L309.91 0.890625L321.207 0.890625L321.332 4.39062L320.551 4.39062C320.488 3.89062 320.379 3.48047 320.223 3.15625C320.066 2.82422 319.848 2.5625 319.566 2.375C319.293 2.17969 318.941 2.04297 318.504 1.96875C318.074 1.88672 317.543 1.84375 316.91 1.84375L314.895 1.84375C314.582 1.84375 314.387 1.88672 314.316 1.96875C314.242 2.04297 314.207 2.21875 314.207 2.5L314.207 7.04688Z" fill="#ffffff" fill-rule="nonzero" opacity="1" stroke="none" vectornator:layerName="path"/>
<path d="M334.704 14.8281L326.798 3.5625L326.72 3.5625L326.72 11.2344C326.72 11.8398 326.739 12.3125 326.782 12.6562C326.821 13 326.911 13.2734 327.048 13.4688C327.181 13.6562 327.368 13.7812 327.611 13.8438C327.861 13.8984 328.181 13.9297 328.579 13.9375L328.579 14.6562L323.267 14.6562L323.267 13.9375C323.712 13.9297 324.068 13.8906 324.329 13.8281C324.599 13.7656 324.806 13.6484 324.954 13.4688C325.111 13.2812 325.208 13.0273 325.251 12.7031C325.302 12.3711 325.329 11.9297 325.329 11.375L325.329 4.1875C325.329 3.6875 325.302 3.27734 325.251 2.95312C325.208 2.62109 325.118 2.35938 324.986 2.17188C324.861 1.97656 324.673 1.83984 324.423 1.76562C324.181 1.68359 323.861 1.63281 323.454 1.60938L323.454 0.890625L328.439 0.890625L335.642 11.2188L335.72 11.2188L335.72 4.3125C335.72 3.73047 335.696 3.26172 335.657 2.90625C335.614 2.55469 335.521 2.28125 335.376 2.09375C335.239 1.89844 335.048 1.77344 334.798 1.71875C334.556 1.65625 334.243 1.62109 333.861 1.60938L333.861 0.890625L339.157 0.890625L339.157 1.60938C338.72 1.62109 338.364 1.66406 338.095 1.73438C337.833 1.79688 337.626 1.91797 337.47 2.09375C337.321 2.27344 337.224 2.52734 337.173 2.85938C337.13 3.19531 337.111 3.63672 337.111 4.1875L337.111 14.8281L334.704 14.8281Z" fill="#ffffff" fill-rule="nonzero" opacity="1" stroke="none" vectornator:layerName="path"/>
<path d="M354.097 4.82812L353.331 4.82812C353.3 4.24609 353.21 3.76172 353.066 3.375C352.929 2.98047 352.737 2.66797 352.487 2.4375C352.237 2.21094 351.933 2.05469 351.581 1.96875C351.226 1.875 350.808 1.82812 350.331 1.82812C349.862 1.82812 349.487 1.83984 349.206 1.85938C348.933 1.87109 348.722 1.89844 348.566 1.9375C348.417 1.98047 348.319 2.03906 348.269 2.10938C348.226 2.18359 348.206 2.27344 348.206 2.375L348.206 11.75C348.206 12.125 348.23 12.4531 348.284 12.7344C348.335 13.0078 348.444 13.2305 348.612 13.4062C348.776 13.5742 349.023 13.7031 349.347 13.7969C349.667 13.8828 350.089 13.9297 350.612 13.9375L350.612 14.6562L343.128 14.6562L343.128 13.9375C343.659 13.9297 344.085 13.8828 344.409 13.7969C344.73 13.7031 344.976 13.5742 345.144 13.4062C345.319 13.2305 345.433 13.0078 345.487 12.7344C345.55 12.4531 345.581 12.125 345.581 11.75L345.581 2.375C345.581 2.27344 345.558 2.18359 345.519 2.10938C345.476 2.03906 345.386 1.98047 345.253 1.9375C345.116 1.89844 344.929 1.87109 344.691 1.85938C344.448 1.83984 344.132 1.82812 343.737 1.82812C343.308 1.82812 342.898 1.85156 342.503 1.89062C342.105 1.93359 341.757 2.05469 341.456 2.25C341.163 2.4375 340.925 2.73438 340.737 3.14062C340.55 3.53906 340.448 4.10156 340.441 4.82812L339.753 4.82812L339.925 0.890625L353.925 0.890625L354.097 4.82812Z" fill="#ffffff" fill-rule="nonzero" opacity="1" stroke="none" vectornator:layerName="path"/>
</g>
</svg>
