<svg xmlns="http://www.w3.org/2000/svg" xmlns:xlink="http://www.w3.org/1999/xlink" width="500" zoomAndPan="magnify" viewBox="0 0 375 374.999991" height="500" preserveAspectRatio="xMidYMid meet" version="1.0"><defs><g/><clipPath id="e19526be6a"><path d="M 191 6.820312 L 257.722656 6.820312 L 257.722656 73.550781 L 191 73.550781 Z M 191 6.820312 " clip-rule="nonzero"/></clipPath></defs><g clip-path="url(#e19526be6a)"><path fill="#0c346a" d="M 205.007812 43.535156 C 204.28125 43.535156 203.570312 43.617188 202.890625 43.773438 L 202.890625 25.132812 C 202.890625 22.941406 204.683594 21.152344 206.875 21.152344 L 230.566406 21.152344 L 230.566406 23.234375 C 230.566406 23.664062 230.621094 24.082031 230.726562 24.480469 L 206.773438 24.480469 C 206.46875 24.480469 206.222656 24.730469 206.222656 25.03125 L 206.222656 43.613281 C 205.824219 43.5625 205.417969 43.535156 205.007812 43.535156 Z M 205.007812 60.117188 C 208.964844 60.117188 212.175781 56.90625 212.175781 52.949219 C 212.175781 48.988281 208.964844 45.78125 205.007812 45.78125 C 201.050781 45.78125 197.839844 48.988281 197.839844 52.949219 C 197.839844 56.90625 201.050781 60.117188 205.007812 60.117188 Z M 219.230469 45.582031 C 219.1875 45.796875 219.238281 45.996094 219.375 46.164062 C 219.515625 46.332031 219.699219 46.417969 219.917969 46.417969 L 237.667969 46.417969 C 237.886719 46.417969 238.070312 46.332031 238.210938 46.164062 C 238.347656 45.996094 238.398438 45.796875 238.355469 45.582031 C 237.476562 41.101562 233.53125 37.722656 228.792969 37.722656 C 224.054688 37.722656 220.109375 41.101562 219.230469 45.582031 Z M 228.792969 26.464844 C 226.070312 26.464844 223.867188 28.667969 223.867188 31.390625 C 223.867188 34.113281 226.070312 36.320312 228.792969 36.320312 C 231.515625 36.320312 233.722656 34.113281 233.722656 31.390625 C 233.722656 28.667969 231.515625 26.464844 228.792969 26.464844 Z M 251.363281 49.804688 L 213.882812 49.804688 C 214.230469 50.789062 214.421875 51.847656 214.421875 52.949219 C 214.421875 54.210938 214.171875 55.414062 213.722656 56.511719 L 220.652344 56.511719 L 220.652344 62.839844 L 215.222656 62.839844 C 217.058594 64.296875 218.578125 66.144531 219.65625 68.265625 L 246.390625 68.265625 L 246.390625 65.554688 C 246.390625 64.0625 244.863281 62.839844 242.996094 62.839844 L 236.933594 62.839844 L 236.933594 56.511719 L 250.710938 56.511719 C 252.902344 56.511719 254.695312 54.71875 254.695312 52.53125 L 254.695312 28.207031 L 251.363281 28.207031 Z M 258.253906 9.558594 C 258.253906 14.117188 258.253906 18.675781 258.253906 23.234375 C 258.253906 24.734375 257.03125 25.960938 255.527344 25.960938 L 243.1875 25.960938 L 239.058594 30.265625 C 238.855469 30.472656 238.558594 30.539062 238.289062 30.429688 C 238.019531 30.320312 237.847656 30.070312 237.847656 29.777344 L 237.847656 25.960938 L 235.539062 25.960938 C 234.039062 25.960938 232.8125 24.734375 232.8125 23.234375 C 232.8125 18.675781 232.8125 14.117188 232.8125 9.558594 C 232.8125 8.054688 234.039062 6.828125 235.539062 6.828125 C 242.203125 6.828125 248.863281 6.828125 255.527344 6.828125 C 257.03125 6.828125 258.253906 8.054688 258.253906 9.558594 Z M 253.816406 20.773438 C 253.816406 20.152344 253.316406 19.648438 252.695312 19.648438 L 238.128906 19.648438 C 237.507812 19.648438 237.007812 20.152344 237.007812 20.773438 C 237.007812 21.390625 237.507812 21.894531 238.128906 21.894531 L 252.695312 21.894531 C 253.316406 21.894531 253.816406 21.390625 253.816406 20.773438 Z M 253.816406 16.441406 C 253.816406 15.820312 253.316406 15.320312 252.695312 15.320312 L 238.128906 15.320312 C 237.507812 15.320312 237.007812 15.820312 237.007812 16.441406 C 237.007812 17.0625 237.507812 17.5625 238.128906 17.5625 L 252.695312 17.5625 C 253.316406 17.5625 253.816406 17.0625 253.816406 16.441406 Z M 253.816406 12.113281 C 253.816406 11.492188 253.316406 10.988281 252.695312 10.988281 L 238.128906 10.988281 C 237.507812 10.988281 237.007812 11.492188 237.007812 12.113281 C 237.007812 12.730469 237.507812 13.234375 238.128906 13.234375 L 252.695312 13.234375 C 253.316406 13.234375 253.816406 12.730469 253.816406 12.113281 Z M 205.007812 61.519531 C 197.976562 61.519531 192.140625 66.640625 191.023438 73.355469 C 190.988281 73.566406 191.042969 73.761719 191.179688 73.921875 C 191.320312 74.085938 191.503906 74.171875 191.714844 74.171875 L 218.300781 74.171875 C 218.511719 74.171875 218.695312 74.085938 218.835938 73.921875 C 218.972656 73.761719 219.027344 73.566406 218.992188 73.355469 C 217.875 66.640625 212.039062 61.519531 205.007812 61.519531 Z M 205.007812 61.519531 " fill-opacity="1" fill-rule="nonzero"/></g><g fill="#2b9eae" fill-opacity="1"><g transform="translate(118.4707, 296.712983)"><g><path d="M 86.734375 -166.1875 C 94.578125 -166.1875 101.394531 -165.53125 107.1875 -164.21875 C 112.976562 -162.914062 117.796875 -161.101562 121.640625 -158.78125 C 125.484375 -156.46875 128.359375 -153.742188 130.265625 -150.609375 C 132.171875 -147.472656 133.125 -144.070312 133.125 -140.40625 C 133.125 -137.945312 132.617188 -135.726562 131.609375 -133.75 C 130.609375 -131.769531 129.207031 -130.085938 127.40625 -128.703125 C 125.613281 -127.316406 123.503906 -126.25 121.078125 -125.5 C 118.648438 -124.757812 116.019531 -124.390625 113.1875 -124.390625 C 113.1875 -127.972656 112.71875 -131.519531 111.78125 -135.03125 C 110.84375 -138.539062 109.3125 -141.695312 107.1875 -144.5 C 105.0625 -147.300781 102.296875 -149.578125 98.890625 -151.328125 C 95.492188 -153.085938 91.289062 -153.96875 86.28125 -153.96875 C 77.613281 -153.96875 70.253906 -152.378906 64.203125 -149.203125 C 58.160156 -146.035156 53.234375 -141.40625 49.421875 -135.3125 C 45.609375 -129.226562 42.84375 -121.71875 41.125 -112.78125 C 39.40625 -103.851562 38.546875 -93.640625 38.546875 -82.140625 C 38.546875 -71.898438 39.441406 -62.519531 41.234375 -54 C 43.023438 -45.488281 45.863281 -38.1875 49.75 -32.09375 C 53.632812 -26.007812 58.582031 -21.285156 64.59375 -17.921875 C 70.613281 -14.566406 77.84375 -12.890625 86.28125 -12.890625 C 91.882812 -12.890625 96.832031 -13.429688 101.125 -14.515625 C 105.425781 -15.597656 109.21875 -17.035156 112.5 -18.828125 C 115.789062 -20.617188 118.6875 -22.691406 121.1875 -25.046875 C 123.695312 -27.398438 125.921875 -29.847656 127.859375 -32.390625 C 129.128906 -31.566406 130.175781 -30.441406 131 -29.015625 C 131.820312 -27.597656 132.234375 -25.734375 132.234375 -23.421875 C 132.234375 -20.503906 131.242188 -17.53125 129.265625 -14.5 C 127.285156 -11.476562 124.273438 -8.734375 120.234375 -6.265625 C 116.203125 -3.804688 111.085938 -1.773438 104.890625 -0.171875 C 98.691406 1.429688 91.332031 2.234375 82.8125 2.234375 C 71.382812 2.234375 61.335938 0.21875 52.671875 -3.8125 C 44.003906 -7.84375 36.738281 -13.554688 30.875 -20.953125 C 25.007812 -28.347656 20.582031 -37.238281 17.59375 -47.625 C 14.601562 -58.007812 13.109375 -69.515625 13.109375 -82.140625 C 13.109375 -94.546875 14.675781 -105.898438 17.8125 -116.203125 C 20.957031 -126.515625 25.609375 -135.367188 31.765625 -142.765625 C 37.929688 -150.160156 45.609375 -155.910156 54.796875 -160.015625 C 63.984375 -164.128906 74.628906 -166.1875 86.734375 -166.1875 Z M 86.734375 -166.1875 "/></g></g></g><g fill="#0c346a" fill-opacity="0.4"><g transform="translate(131.581049, 302.27321)"><g><path d="M -1.125 -12.90625 C 15.050781 -24.78125 31.367188 -55.351562 47.828125 -104.625 C 57.359375 -133.320312 63.992188 -159.21875 67.734375 -182.3125 C 68.765625 -188.769531 69.28125 -193.726562 69.28125 -197.1875 C 65.445312 -197 61.894531 -195.96875 58.625 -194.09375 L 48.109375 -188.0625 C 45.203125 -186.476562 41.34375 -187.742188 36.53125 -191.859375 C 31.71875 -195.972656 29.519531 -199.453125 29.9375 -202.296875 C 30.363281 -205.148438 31.953125 -207.488281 34.703125 -209.3125 C 37.460938 -211.132812 40.664062 -212.703125 44.3125 -214.015625 C 51.976562 -216.722656 58.40625 -218.078125 63.59375 -218.078125 C 68.789062 -218.078125 73.375 -217.675781 77.34375 -216.875 C 81.3125 -216.082031 84.9375 -214.753906 88.21875 -212.890625 C 95.695312 -208.585938 99.53125 -202.414062 99.71875 -194.375 C 100.09375 -180.445312 95.367188 -156.796875 85.546875 -123.421875 C 70.023438 -70.585938 51.796875 -33.46875 30.859375 -12.0625 C 25.148438 -6.164062 19.210938 -2.144531 13.046875 0 C 11.359375 0.65625 9.648438 0.984375 7.921875 0.984375 C 6.191406 0.984375 4.625 0.675781 3.21875 0.0625 C 1.820312 -0.539062 0.65625 -1.3125 -0.28125 -2.25 C -2.238281 -4.019531 -3.21875 -5.976562 -3.21875 -8.125 C -3.21875 -10.28125 -2.519531 -11.875 -1.125 -12.90625 Z M -1.125 -12.90625 "/></g></g></g><g fill="#0c346a" fill-opacity="1"><g transform="translate(124.843619, 303.34032)"><g><path d="M -1.125 -12.90625 C 15.050781 -24.78125 31.367188 -55.351562 47.828125 -104.625 C 57.359375 -133.320312 63.992188 -159.21875 67.734375 -182.3125 C 68.765625 -188.769531 69.28125 -193.726562 69.28125 -197.1875 C 65.445312 -197 61.894531 -195.96875 58.625 -194.09375 L 48.109375 -188.0625 C 45.203125 -186.476562 41.34375 -187.742188 36.53125 -191.859375 C 31.71875 -195.972656 29.519531 -199.453125 29.9375 -202.296875 C 30.363281 -205.148438 31.953125 -207.488281 34.703125 -209.3125 C 37.460938 -211.132812 40.664062 -212.703125 44.3125 -214.015625 C 51.976562 -216.722656 58.40625 -218.078125 63.59375 -218.078125 C 68.789062 -218.078125 73.375 -217.675781 77.34375 -216.875 C 81.3125 -216.082031 84.9375 -214.753906 88.21875 -212.890625 C 95.695312 -208.585938 99.53125 -202.414062 99.71875 -194.375 C 100.09375 -180.445312 95.367188 -156.796875 85.546875 -123.421875 C 70.023438 -70.585938 51.796875 -33.46875 30.859375 -12.0625 C 25.148438 -6.164062 19.210938 -2.144531 13.046875 0 C 11.359375 0.65625 9.648438 0.984375 7.921875 0.984375 C 6.191406 0.984375 4.625 0.675781 3.21875 0.0625 C 1.820312 -0.539062 0.65625 -1.3125 -0.28125 -2.25 C -2.238281 -4.019531 -3.21875 -5.976562 -3.21875 -8.125 C -3.21875 -10.28125 -2.519531 -11.875 -1.125 -12.90625 Z M -1.125 -12.90625 "/></g></g></g></svg>