<?xml version="1.0" encoding="UTF-8" standalone="no"?>
<!DOCTYPE svg PUBLIC "-//W3C//DTD SVG 1.1//EN" "http://www.w3.org/Graphics/SVG/1.1/DTD/svg11.dtd">
<svg width="100%" height="100%" viewBox="0 0 500 500" version="1.1" xmlns="http://www.w3.org/2000/svg" xmlns:xlink="http://www.w3.org/1999/xlink" xml:space="preserve" xmlns:serif="http://www.serif.com/" style="fill-rule:evenodd;clip-rule:evenodd;stroke-linejoin:round;stroke-miterlimit:2;">
    <g transform="matrix(1,0,0,1,52.75,361.314)">
        <g>
            <g>
                <path d="M7.854,0L0.729,0L0.729,-0.792C1.172,-0.802 1.531,-0.844 1.813,-0.917C2.089,-1 2.297,-1.135 2.438,-1.333C2.589,-1.542 2.688,-1.823 2.729,-2.187C2.781,-2.562 2.813,-3.062 2.813,-3.687L2.813,-11.729C2.813,-12.281 2.792,-12.74 2.75,-13.104C2.708,-13.479 2.615,-13.771 2.479,-13.979C2.339,-14.187 2.146,-14.333 1.896,-14.417C1.656,-14.51 1.333,-14.573 0.917,-14.604L0.917,-15.396L7.667,-15.396L7.667,-14.604C7.25,-14.573 6.917,-14.51 6.667,-14.417C6.417,-14.333 6.219,-14.187 6.083,-13.979C5.958,-13.771 5.865,-13.479 5.813,-13.104C5.771,-12.74 5.75,-12.281 5.75,-11.729L5.75,-3.687C5.75,-3.062 5.771,-2.562 5.813,-2.187C5.865,-1.823 5.969,-1.542 6.125,-1.333C6.276,-1.135 6.49,-1 6.771,-0.917C7.047,-0.844 7.406,-0.802 7.854,-0.792L7.854,0Z" style="fill:rgb(14,38,48);fill-rule:nonzero;"/>
            </g>
        </g>
    </g>
    <g transform="matrix(1,0,0,1,61.33,361.314)">
        <g>
            <g>
                <path d="M8.75,0.208C7.552,0.208 6.469,0.031 5.5,-0.312C4.542,-0.672 3.719,-1.177 3.042,-1.833C2.375,-2.5 1.854,-3.302 1.479,-4.25C1.115,-5.193 0.938,-6.25 0.938,-7.417C0.938,-8.635 1.13,-9.75 1.521,-10.75C1.922,-11.75 2.479,-12.609 3.188,-13.333C3.896,-14.052 4.74,-14.609 5.729,-15C6.714,-15.401 7.802,-15.604 9,-15.604C9.833,-15.604 10.615,-15.484 11.354,-15.25C12.104,-15.026 12.906,-14.667 13.771,-14.167L14.167,-15.396L14.875,-15.396L14.875,-10.333L13.875,-10.333C13.609,-11.594 13.073,-12.568 12.271,-13.25C11.464,-13.943 10.458,-14.292 9.25,-14.292C7.708,-14.292 6.51,-13.698 5.667,-12.521C4.818,-11.339 4.396,-9.693 4.396,-7.583C4.396,-5.5 4.802,-3.901 5.625,-2.792C6.458,-1.693 7.667,-1.146 9.25,-1.146C10.375,-1.146 11.25,-1.427 11.875,-2C12.51,-2.583 12.833,-3.385 12.833,-4.417C12.833,-5.026 12.672,-5.479 12.354,-5.771C12.031,-6.062 11.5,-6.234 10.75,-6.292L10.75,-7.104L17.229,-7.104L17.229,-6.292C16.573,-6.292 16.115,-6.146 15.854,-5.854C15.604,-5.573 15.479,-5.062 15.479,-4.312L15.479,-1.667C15.188,-1.667 14.938,-1.651 14.729,-1.625C14.531,-1.609 14.339,-1.568 14.146,-1.5C13.948,-1.443 13.734,-1.344 13.5,-1.208C13.26,-1.083 12.964,-0.917 12.604,-0.708C11.573,-0.094 10.292,0.208 8.75,0.208Z" style="fill:rgb(14,38,48);fill-rule:nonzero;"/>
            </g>
        </g>
    </g>
    <g transform="matrix(1,0,0,1,78.85,361.314)">
        <g>
            <g>
                <path d="M13.396,0.208L4.542,-12.417L4.458,-12.417L4.458,-3.812C4.458,-3.146 4.479,-2.615 4.521,-2.229C4.573,-1.854 4.677,-1.552 4.833,-1.333C4.984,-1.125 5.193,-0.984 5.458,-0.917C5.734,-0.844 6.094,-0.802 6.542,-0.792L6.542,0L0.604,0L0.604,-0.792C1.089,-0.802 1.484,-0.844 1.792,-0.917C2.094,-1 2.333,-1.135 2.5,-1.333C2.667,-1.542 2.771,-1.823 2.813,-2.187C2.865,-2.562 2.896,-3.062 2.896,-3.687L2.896,-11.729C2.896,-12.281 2.865,-12.74 2.813,-13.104C2.771,-13.479 2.672,-13.771 2.521,-13.979C2.365,-14.187 2.151,-14.333 1.875,-14.417C1.609,-14.51 1.25,-14.573 0.792,-14.604L0.792,-15.396L6.375,-15.396L14.438,-3.833L14.521,-3.833L14.521,-11.583C14.521,-12.234 14.49,-12.755 14.438,-13.146C14.396,-13.547 14.297,-13.854 14.146,-14.062C13.99,-14.271 13.776,-14.406 13.5,-14.479C13.234,-14.547 12.88,-14.589 12.438,-14.604L12.438,-15.396L18.375,-15.396L18.375,-14.604C17.885,-14.589 17.49,-14.542 17.188,-14.458C16.896,-14.385 16.667,-14.25 16.5,-14.042C16.333,-13.844 16.219,-13.562 16.167,-13.187C16.109,-12.823 16.083,-12.339 16.083,-11.729L16.083,0.208L13.396,0.208Z" style="fill:rgb(14,38,48);fill-rule:nonzero;"/>
            </g>
        </g>
    </g>
    <g transform="matrix(1,0,0,1,97.65,361.314)">
        <g>
            <g>
                <path d="M7.854,0L0.729,0L0.729,-0.792C1.172,-0.802 1.531,-0.844 1.813,-0.917C2.089,-1 2.297,-1.135 2.438,-1.333C2.589,-1.542 2.688,-1.823 2.729,-2.187C2.781,-2.562 2.813,-3.062 2.813,-3.687L2.813,-11.729C2.813,-12.281 2.792,-12.74 2.75,-13.104C2.708,-13.479 2.615,-13.771 2.479,-13.979C2.339,-14.187 2.146,-14.333 1.896,-14.417C1.656,-14.51 1.333,-14.573 0.917,-14.604L0.917,-15.396L7.667,-15.396L7.667,-14.604C7.25,-14.573 6.917,-14.51 6.667,-14.417C6.417,-14.333 6.219,-14.187 6.083,-13.979C5.958,-13.771 5.865,-13.479 5.813,-13.104C5.771,-12.74 5.75,-12.281 5.75,-11.729L5.75,-3.687C5.75,-3.062 5.771,-2.562 5.813,-2.187C5.865,-1.823 5.969,-1.542 6.125,-1.333C6.276,-1.135 6.49,-1 6.771,-0.917C7.047,-0.844 7.406,-0.802 7.854,-0.792L7.854,0Z" style="fill:rgb(14,38,48);fill-rule:nonzero;"/>
            </g>
        </g>
    </g>
    <g transform="matrix(1,0,0,1,106.23,361.314)">
        <g>
            <g>
                <path d="M16.292,-11L15.438,-11C15.396,-11.651 15.297,-12.193 15.146,-12.625C14.99,-13.052 14.776,-13.401 14.5,-13.667C14.219,-13.927 13.88,-14.109 13.479,-14.208C13.073,-14.302 12.609,-14.354 12.083,-14.354C11.552,-14.354 11.13,-14.339 10.813,-14.312C10.505,-14.297 10.271,-14.271 10.104,-14.229C9.938,-14.187 9.823,-14.125 9.771,-14.042C9.729,-13.958 9.708,-13.859 9.708,-13.75L9.708,-3.25C9.708,-2.833 9.734,-2.469 9.792,-2.167C9.844,-1.859 9.964,-1.609 10.146,-1.417C10.339,-1.219 10.615,-1.068 10.979,-0.958C11.339,-0.859 11.813,-0.802 12.396,-0.792L12.396,0L4.021,0L4.021,-0.792C4.615,-0.802 5.094,-0.859 5.458,-0.958C5.818,-1.068 6.094,-1.219 6.292,-1.417C6.484,-1.609 6.609,-1.859 6.667,-2.167C6.719,-2.469 6.75,-2.833 6.75,-3.25L6.75,-13.75C6.75,-13.859 6.729,-13.958 6.688,-14.042C6.646,-14.125 6.547,-14.187 6.396,-14.229C6.255,-14.271 6.047,-14.297 5.771,-14.312C5.49,-14.339 5.135,-14.354 4.708,-14.354C4.219,-14.354 3.755,-14.333 3.313,-14.292C2.88,-14.25 2.5,-14.115 2.167,-13.896C1.833,-13.672 1.563,-13.339 1.354,-12.896C1.146,-12.448 1.031,-11.818 1.021,-11L0.25,-11L0.438,-15.396L16.104,-15.396L16.292,-11Z" style="fill:rgb(14,38,48);fill-rule:nonzero;"/>
            </g>
        </g>
    </g>
    <g transform="matrix(1,0,0,1,122.77,361.314)">
        <g>
            <g>
                <path d="M5.75,-8.521C6.594,-8.521 7.276,-8.547 7.792,-8.604C8.318,-8.656 8.719,-8.771 9,-8.937C9.292,-9.104 9.49,-9.344 9.604,-9.667C9.729,-9.984 9.823,-10.417 9.896,-10.958L10.646,-10.958L10.646,-5.104L9.896,-5.104C9.813,-5.63 9.698,-6.052 9.563,-6.375C9.438,-6.693 9.229,-6.937 8.938,-7.104C8.646,-7.271 8.25,-7.375 7.75,-7.417C7.25,-7.469 6.583,-7.5 5.75,-7.5L5.75,-3.375C5.75,-2.958 5.802,-2.594 5.917,-2.292C6.026,-2 6.214,-1.76 6.479,-1.583C6.74,-1.401 7.094,-1.276 7.542,-1.208C7.984,-1.135 8.526,-1.104 9.167,-1.104C9.917,-1.104 10.552,-1.151 11.083,-1.25C11.609,-1.359 12.047,-1.547 12.396,-1.812C12.74,-2.089 13.021,-2.448 13.229,-2.896C13.448,-3.339 13.63,-3.901 13.771,-4.583L14.583,-4.583L14.25,0L0.708,0L0.708,-0.792C1.135,-0.802 1.49,-0.844 1.771,-0.917C2.063,-0.984 2.276,-1.094 2.417,-1.25C2.568,-1.417 2.667,-1.646 2.708,-1.937C2.76,-2.229 2.792,-2.609 2.792,-3.083L2.792,-12.312C2.792,-12.781 2.771,-13.156 2.729,-13.437C2.688,-13.729 2.594,-13.958 2.458,-14.125C2.318,-14.292 2.125,-14.401 1.875,-14.458C1.635,-14.526 1.318,-14.573 0.917,-14.604L0.917,-15.396L13.563,-15.396L13.708,-11.479L12.833,-11.479C12.76,-12.031 12.635,-12.49 12.458,-12.854C12.292,-13.229 12.047,-13.526 11.729,-13.75C11.422,-13.969 11.026,-14.125 10.542,-14.208C10.052,-14.292 9.458,-14.333 8.75,-14.333L6.5,-14.333C6.151,-14.333 5.938,-14.292 5.854,-14.208C5.781,-14.125 5.75,-13.922 5.75,-13.604L5.75,-8.521Z" style="fill:rgb(14,38,48);fill-rule:nonzero;"/>
            </g>
        </g>
    </g>
    <g transform="matrix(1,0,0,1,143.37,361.314)">
        <g>
            <g>
                <rect x="1.875" y="-16.396" width="2.146" height="21.396" style="fill:rgb(14,38,48);fill-rule:nonzero;"/>
            </g>
        </g>
    </g>
    <g transform="matrix(1,0,0,1,154.59,361.314)">
        <g>
            <g>
                <path d="M7.854,0L0.729,0L0.729,-0.792C1.172,-0.802 1.531,-0.844 1.813,-0.917C2.089,-1 2.297,-1.135 2.438,-1.333C2.589,-1.542 2.688,-1.823 2.729,-2.187C2.781,-2.562 2.813,-3.062 2.813,-3.687L2.813,-11.729C2.813,-12.281 2.792,-12.74 2.75,-13.104C2.708,-13.479 2.615,-13.771 2.479,-13.979C2.339,-14.187 2.146,-14.333 1.896,-14.417C1.656,-14.51 1.333,-14.573 0.917,-14.604L0.917,-15.396L7.667,-15.396L7.667,-14.604C7.25,-14.573 6.917,-14.51 6.667,-14.417C6.417,-14.333 6.219,-14.187 6.083,-13.979C5.958,-13.771 5.865,-13.479 5.813,-13.104C5.771,-12.74 5.75,-12.281 5.75,-11.729L5.75,-3.687C5.75,-3.062 5.771,-2.562 5.813,-2.187C5.865,-1.823 5.969,-1.542 6.125,-1.333C6.276,-1.135 6.49,-1 6.771,-0.917C7.047,-0.844 7.406,-0.802 7.854,-0.792L7.854,0Z" style="fill:rgb(14,38,48);fill-rule:nonzero;"/>
            </g>
        </g>
    </g>
    <g transform="matrix(1,0,0,1,163.17,361.314)">
        <g>
            <g>
                <path d="M13.396,0.208L4.542,-12.417L4.458,-12.417L4.458,-3.812C4.458,-3.146 4.479,-2.615 4.521,-2.229C4.573,-1.854 4.677,-1.552 4.833,-1.333C4.984,-1.125 5.193,-0.984 5.458,-0.917C5.734,-0.844 6.094,-0.802 6.542,-0.792L6.542,0L0.604,0L0.604,-0.792C1.089,-0.802 1.484,-0.844 1.792,-0.917C2.094,-1 2.333,-1.135 2.5,-1.333C2.667,-1.542 2.771,-1.823 2.813,-2.187C2.865,-2.562 2.896,-3.062 2.896,-3.687L2.896,-11.729C2.896,-12.281 2.865,-12.74 2.813,-13.104C2.771,-13.479 2.672,-13.771 2.521,-13.979C2.365,-14.187 2.151,-14.333 1.875,-14.417C1.609,-14.51 1.25,-14.573 0.792,-14.604L0.792,-15.396L6.375,-15.396L14.438,-3.833L14.521,-3.833L14.521,-11.583C14.521,-12.234 14.49,-12.755 14.438,-13.146C14.396,-13.547 14.297,-13.854 14.146,-14.062C13.99,-14.271 13.776,-14.406 13.5,-14.479C13.234,-14.547 12.88,-14.589 12.438,-14.604L12.438,-15.396L18.375,-15.396L18.375,-14.604C17.885,-14.589 17.49,-14.542 17.188,-14.458C16.896,-14.385 16.667,-14.25 16.5,-14.042C16.333,-13.844 16.219,-13.562 16.167,-13.187C16.109,-12.823 16.083,-12.339 16.083,-11.729L16.083,0.208L13.396,0.208Z" style="fill:rgb(14,38,48);fill-rule:nonzero;"/>
            </g>
        </g>
    </g>
    <g transform="matrix(1,0,0,1,181.97,361.314)">
        <g>
            <g>
                <path d="M13.396,0.208L4.542,-12.417L4.458,-12.417L4.458,-3.812C4.458,-3.146 4.479,-2.615 4.521,-2.229C4.573,-1.854 4.677,-1.552 4.833,-1.333C4.984,-1.125 5.193,-0.984 5.458,-0.917C5.734,-0.844 6.094,-0.802 6.542,-0.792L6.542,0L0.604,0L0.604,-0.792C1.089,-0.802 1.484,-0.844 1.792,-0.917C2.094,-1 2.333,-1.135 2.5,-1.333C2.667,-1.542 2.771,-1.823 2.813,-2.187C2.865,-2.562 2.896,-3.062 2.896,-3.687L2.896,-11.729C2.896,-12.281 2.865,-12.74 2.813,-13.104C2.771,-13.479 2.672,-13.771 2.521,-13.979C2.365,-14.187 2.151,-14.333 1.875,-14.417C1.609,-14.51 1.25,-14.573 0.792,-14.604L0.792,-15.396L6.375,-15.396L14.438,-3.833L14.521,-3.833L14.521,-11.583C14.521,-12.234 14.49,-12.755 14.438,-13.146C14.396,-13.547 14.297,-13.854 14.146,-14.062C13.99,-14.271 13.776,-14.406 13.5,-14.479C13.234,-14.547 12.88,-14.589 12.438,-14.604L12.438,-15.396L18.375,-15.396L18.375,-14.604C17.885,-14.589 17.49,-14.542 17.188,-14.458C16.896,-14.385 16.667,-14.25 16.5,-14.042C16.333,-13.844 16.219,-13.562 16.167,-13.187C16.109,-12.823 16.083,-12.339 16.083,-11.729L16.083,0.208L13.396,0.208Z" style="fill:rgb(14,38,48);fill-rule:nonzero;"/>
            </g>
        </g>
    </g>
    <g transform="matrix(1,0,0,1,200.77,361.314)">
        <g>
            <g>
                <path d="M9.438,-15.604C10.646,-15.604 11.76,-15.396 12.792,-14.979C13.833,-14.562 14.734,-13.99 15.5,-13.271C16.276,-12.562 16.88,-11.714 17.313,-10.729C17.755,-9.755 17.979,-8.708 17.979,-7.583C17.979,-6.5 17.755,-5.484 17.313,-4.542C16.865,-3.594 16.255,-2.771 15.479,-2.062C14.714,-1.365 13.813,-0.812 12.771,-0.396C11.74,0.005 10.63,0.208 9.438,0.208C8.255,0.208 7.146,0.005 6.104,-0.396C5.063,-0.812 4.151,-1.365 3.375,-2.062C2.609,-2.771 2.005,-3.594 1.563,-4.542C1.115,-5.484 0.896,-6.5 0.896,-7.583C0.896,-8.708 1.115,-9.755 1.563,-10.729C2.005,-11.714 2.609,-12.562 3.375,-13.271C4.135,-13.99 5.042,-14.562 6.083,-14.979C7.125,-15.396 8.24,-15.604 9.438,-15.604ZM9.438,-1.104C10.214,-1.104 10.917,-1.25 11.542,-1.542C12.167,-1.844 12.693,-2.276 13.125,-2.833C13.568,-3.385 13.906,-4.062 14.146,-4.854C14.38,-5.646 14.5,-6.531 14.5,-7.521C14.5,-8.562 14.38,-9.5 14.146,-10.333C13.906,-11.167 13.568,-11.875 13.125,-12.458C12.693,-13.052 12.167,-13.505 11.542,-13.812C10.917,-14.13 10.214,-14.292 9.438,-14.292C8.646,-14.292 7.938,-14.13 7.313,-13.812C6.698,-13.505 6.172,-13.052 5.729,-12.458C5.297,-11.875 4.964,-11.167 4.729,-10.333C4.49,-9.5 4.375,-8.562 4.375,-7.521C4.375,-6.531 4.49,-5.646 4.729,-4.854C4.964,-4.062 5.297,-3.385 5.729,-2.833C6.172,-2.276 6.698,-1.844 7.313,-1.542C7.938,-1.25 8.646,-1.104 9.438,-1.104Z" style="fill:rgb(14,38,48);fill-rule:nonzero;"/>
            </g>
        </g>
    </g>
    <g transform="matrix(1,0,0,1,219.63,361.314)">
        <g>
            <g>
                <path d="M8.75,-3.437L11.354,-10.104C11.615,-10.755 11.823,-11.281 11.979,-11.687C12.13,-12.104 12.24,-12.443 12.313,-12.708C12.396,-12.984 12.448,-13.198 12.479,-13.354C12.505,-13.521 12.521,-13.672 12.521,-13.812C12.521,-14.13 12.396,-14.339 12.146,-14.437C11.906,-14.547 11.438,-14.604 10.729,-14.604L10.729,-15.396L16.396,-15.396L16.396,-14.604C15.297,-14.604 14.531,-14.062 14.104,-12.979L8.833,0.208L7.354,0.208L2.583,-11.479C2.318,-12.104 2.073,-12.615 1.854,-13.021C1.646,-13.422 1.417,-13.734 1.167,-13.958C0.927,-14.193 0.667,-14.354 0.375,-14.437C0.094,-14.531 -0.234,-14.583 -0.625,-14.583L-0.625,-15.396L6.938,-15.396L6.938,-14.583C6.589,-14.568 6.297,-14.547 6.063,-14.521C5.839,-14.49 5.656,-14.443 5.521,-14.375C5.38,-14.318 5.281,-14.24 5.229,-14.146C5.188,-14.047 5.167,-13.922 5.167,-13.771C5.167,-13.589 5.193,-13.375 5.25,-13.125C5.318,-12.875 5.422,-12.568 5.563,-12.208L8.75,-3.437Z" style="fill:rgb(14,38,48);fill-rule:nonzero;"/>
            </g>
        </g>
    </g>
    <g transform="matrix(1,0,0,1,235.73,361.314)">
        <g>
            <g>
                <path d="M10.021,-4.667L4.354,-4.667C3.729,-3.25 3.417,-2.271 3.417,-1.729C3.417,-1.323 3.563,-1.068 3.854,-0.958C4.156,-0.844 4.615,-0.792 5.229,-0.792L5.229,0L-0.25,0L-0.25,-0.792C0.068,-0.833 0.339,-0.885 0.563,-0.958C0.797,-1.026 1.005,-1.115 1.188,-1.229C1.365,-1.354 1.521,-1.51 1.646,-1.708C1.781,-1.901 1.917,-2.135 2.042,-2.417L7.292,-15.604L8.771,-15.604L13.563,-3.917C13.839,-3.234 14.073,-2.698 14.271,-2.312C14.464,-1.937 14.672,-1.646 14.896,-1.437C15.115,-1.229 15.365,-1.083 15.646,-1C15.938,-0.917 16.302,-0.854 16.75,-0.812L16.75,0L9.208,0L9.208,-0.812C9.844,-0.839 10.302,-0.906 10.583,-1.021C10.859,-1.13 11,-1.344 11,-1.667C11,-1.844 10.948,-2.083 10.854,-2.375C10.771,-2.667 10.646,-3.026 10.479,-3.458L10.021,-4.667ZM4.813,-5.854L9.583,-5.854L7.271,-11.917L7.208,-11.917L4.813,-5.854Z" style="fill:rgb(14,38,48);fill-rule:nonzero;"/>
            </g>
        </g>
    </g>
    <g transform="matrix(1,0,0,1,251.91,361.314)">
        <g>
            <g>
                <path d="M16.292,-11L15.438,-11C15.396,-11.651 15.297,-12.193 15.146,-12.625C14.99,-13.052 14.776,-13.401 14.5,-13.667C14.219,-13.927 13.88,-14.109 13.479,-14.208C13.073,-14.302 12.609,-14.354 12.083,-14.354C11.552,-14.354 11.13,-14.339 10.813,-14.312C10.505,-14.297 10.271,-14.271 10.104,-14.229C9.938,-14.187 9.823,-14.125 9.771,-14.042C9.729,-13.958 9.708,-13.859 9.708,-13.75L9.708,-3.25C9.708,-2.833 9.734,-2.469 9.792,-2.167C9.844,-1.859 9.964,-1.609 10.146,-1.417C10.339,-1.219 10.615,-1.068 10.979,-0.958C11.339,-0.859 11.813,-0.802 12.396,-0.792L12.396,0L4.021,0L4.021,-0.792C4.615,-0.802 5.094,-0.859 5.458,-0.958C5.818,-1.068 6.094,-1.219 6.292,-1.417C6.484,-1.609 6.609,-1.859 6.667,-2.167C6.719,-2.469 6.75,-2.833 6.75,-3.25L6.75,-13.75C6.75,-13.859 6.729,-13.958 6.688,-14.042C6.646,-14.125 6.547,-14.187 6.396,-14.229C6.255,-14.271 6.047,-14.297 5.771,-14.312C5.49,-14.339 5.135,-14.354 4.708,-14.354C4.219,-14.354 3.755,-14.333 3.313,-14.292C2.88,-14.25 2.5,-14.115 2.167,-13.896C1.833,-13.672 1.563,-13.339 1.354,-12.896C1.146,-12.448 1.031,-11.818 1.021,-11L0.25,-11L0.438,-15.396L16.104,-15.396L16.292,-11Z" style="fill:rgb(14,38,48);fill-rule:nonzero;"/>
            </g>
        </g>
    </g>
    <g transform="matrix(1,0,0,1,268.45,361.314)">
        <g>
            <g>
                <path d="M5.75,-8.521C6.594,-8.521 7.276,-8.547 7.792,-8.604C8.318,-8.656 8.719,-8.771 9,-8.937C9.292,-9.104 9.49,-9.344 9.604,-9.667C9.729,-9.984 9.823,-10.417 9.896,-10.958L10.646,-10.958L10.646,-5.104L9.896,-5.104C9.813,-5.63 9.698,-6.052 9.563,-6.375C9.438,-6.693 9.229,-6.937 8.938,-7.104C8.646,-7.271 8.25,-7.375 7.75,-7.417C7.25,-7.469 6.583,-7.5 5.75,-7.5L5.75,-3.375C5.75,-2.958 5.802,-2.594 5.917,-2.292C6.026,-2 6.214,-1.76 6.479,-1.583C6.74,-1.401 7.094,-1.276 7.542,-1.208C7.984,-1.135 8.526,-1.104 9.167,-1.104C9.917,-1.104 10.552,-1.151 11.083,-1.25C11.609,-1.359 12.047,-1.547 12.396,-1.812C12.74,-2.089 13.021,-2.448 13.229,-2.896C13.448,-3.339 13.63,-3.901 13.771,-4.583L14.583,-4.583L14.25,0L0.708,0L0.708,-0.792C1.135,-0.802 1.49,-0.844 1.771,-0.917C2.063,-0.984 2.276,-1.094 2.417,-1.25C2.568,-1.417 2.667,-1.646 2.708,-1.937C2.76,-2.229 2.792,-2.609 2.792,-3.083L2.792,-12.312C2.792,-12.781 2.771,-13.156 2.729,-13.437C2.688,-13.729 2.594,-13.958 2.458,-14.125C2.318,-14.292 2.125,-14.401 1.875,-14.458C1.635,-14.526 1.318,-14.573 0.917,-14.604L0.917,-15.396L13.563,-15.396L13.708,-11.479L12.833,-11.479C12.76,-12.031 12.635,-12.49 12.458,-12.854C12.292,-13.229 12.047,-13.526 11.729,-13.75C11.422,-13.969 11.026,-14.125 10.542,-14.208C10.052,-14.292 9.458,-14.333 8.75,-14.333L6.5,-14.333C6.151,-14.333 5.938,-14.292 5.854,-14.208C5.781,-14.125 5.75,-13.922 5.75,-13.604L5.75,-8.521Z" style="fill:rgb(14,38,48);fill-rule:nonzero;"/>
            </g>
        </g>
    </g>
    <g transform="matrix(1,0,0,1,289.05,361.314)">
        <g>
            <g>
                <rect x="1.875" y="-16.396" width="2.146" height="21.396" style="fill:rgb(14,38,48);fill-rule:nonzero;"/>
            </g>
        </g>
    </g>
    <g transform="matrix(1,0,0,1,300.27,361.314)">
        <g>
            <g>
                <path d="M7.854,0L0.729,0L0.729,-0.792C1.172,-0.802 1.531,-0.844 1.813,-0.917C2.089,-1 2.297,-1.135 2.438,-1.333C2.589,-1.542 2.688,-1.823 2.729,-2.187C2.781,-2.562 2.813,-3.062 2.813,-3.687L2.813,-11.729C2.813,-12.281 2.792,-12.74 2.75,-13.104C2.708,-13.479 2.615,-13.771 2.479,-13.979C2.339,-14.187 2.146,-14.333 1.896,-14.417C1.656,-14.51 1.333,-14.573 0.917,-14.604L0.917,-15.396L7.667,-15.396L7.667,-14.604C7.25,-14.573 6.917,-14.51 6.667,-14.417C6.417,-14.333 6.219,-14.187 6.083,-13.979C5.958,-13.771 5.865,-13.479 5.813,-13.104C5.771,-12.74 5.75,-12.281 5.75,-11.729L5.75,-3.687C5.75,-3.062 5.771,-2.562 5.813,-2.187C5.865,-1.823 5.969,-1.542 6.125,-1.333C6.276,-1.135 6.49,-1 6.771,-0.917C7.047,-0.844 7.406,-0.802 7.854,-0.792L7.854,0Z" style="fill:rgb(14,38,48);fill-rule:nonzero;"/>
            </g>
        </g>
    </g>
    <g transform="matrix(1,0,0,1,308.85,361.314)">
        <g>
            <g>
                <path d="M11.625,-3.75L16.25,-15.396L22.083,-15.396L22.083,-14.604C21.635,-14.604 21.276,-14.552 21,-14.458C20.734,-14.375 20.526,-14.219 20.375,-14C20.234,-13.776 20.135,-13.464 20.083,-13.062C20.042,-12.672 20.021,-12.177 20.021,-11.583L20.021,-3.812C20.021,-3.146 20.047,-2.615 20.104,-2.229C20.156,-1.854 20.26,-1.552 20.417,-1.333C20.583,-1.125 20.813,-0.984 21.104,-0.917C21.406,-0.844 21.802,-0.802 22.292,-0.792L22.292,0L14.771,0L14.771,-0.792C15.271,-0.802 15.667,-0.844 15.958,-0.917C16.26,-1 16.5,-1.135 16.667,-1.333C16.833,-1.542 16.943,-1.823 17,-2.187C17.052,-2.562 17.083,-3.062 17.083,-3.687L17.083,-13.042L16.979,-13.042L11.604,0.208L10.125,0.208L4.563,-13.042L4.479,-13.042L4.479,-3.812C4.479,-3.146 4.505,-2.615 4.563,-2.229C4.615,-1.854 4.719,-1.552 4.875,-1.333C5.042,-1.125 5.271,-0.984 5.563,-0.917C5.865,-0.844 6.26,-0.802 6.75,-0.792L6.75,0L0.604,0L0.604,-0.792C1.089,-0.802 1.484,-0.844 1.792,-0.917C2.094,-1 2.333,-1.135 2.5,-1.333C2.667,-1.542 2.776,-1.823 2.833,-2.187C2.885,-2.562 2.917,-3.062 2.917,-3.687L2.917,-11.729C2.917,-12.281 2.885,-12.75 2.833,-13.125C2.776,-13.5 2.672,-13.792 2.521,-14C2.38,-14.219 2.172,-14.375 1.896,-14.458C1.63,-14.552 1.271,-14.604 0.813,-14.604L0.813,-15.396L6.875,-15.396L11.542,-3.75L11.625,-3.75Z" style="fill:rgb(14,38,48);fill-rule:nonzero;"/>
            </g>
        </g>
    </g>
    <g transform="matrix(1,0,0,1,331.75,361.314)">
        <g>
            <g>
                <path d="M14,-11.125C14,-9.677 13.438,-8.583 12.313,-7.833C11.198,-7.083 9.573,-6.708 7.438,-6.708L5.75,-6.708L5.75,-3.187C5.75,-2.672 5.776,-2.255 5.833,-1.937C5.901,-1.63 6.042,-1.385 6.25,-1.208C6.469,-1.042 6.771,-0.927 7.146,-0.875C7.521,-0.818 8.021,-0.792 8.646,-0.792L8.646,0L0.708,0L0.708,-0.792C1.135,-0.802 1.49,-0.844 1.771,-0.917C2.063,-0.984 2.276,-1.094 2.417,-1.25C2.568,-1.417 2.667,-1.646 2.708,-1.937C2.76,-2.229 2.792,-2.609 2.792,-3.083L2.792,-12.312C2.792,-12.781 2.771,-13.156 2.729,-13.437C2.688,-13.729 2.594,-13.958 2.458,-14.125C2.318,-14.292 2.125,-14.401 1.875,-14.458C1.635,-14.526 1.318,-14.573 0.917,-14.604L0.917,-15.396L7.833,-15.396C9.859,-15.396 11.396,-15.031 12.438,-14.312C13.479,-13.604 14,-12.542 14,-11.125ZM5.75,-7.896L7.042,-7.896C8.333,-7.896 9.276,-8.151 9.875,-8.667C10.469,-9.193 10.771,-10.021 10.771,-11.146C10.771,-12.146 10.51,-12.917 10,-13.458C9.5,-14 8.714,-14.271 7.646,-14.271L6.104,-14.271C5.865,-14.271 5.75,-14.156 5.75,-13.937L5.75,-7.896Z" style="fill:rgb(14,38,48);fill-rule:nonzero;"/>
            </g>
        </g>
    </g>
    <g transform="matrix(1,0,0,1,346.09,361.314)">
        <g>
            <g>
                <path d="M14.479,0L0.708,0L0.708,-0.792C1.135,-0.802 1.49,-0.844 1.771,-0.917C2.063,-0.984 2.276,-1.094 2.417,-1.25C2.568,-1.417 2.667,-1.646 2.708,-1.937C2.76,-2.229 2.792,-2.609 2.792,-3.083L2.792,-12.312C2.792,-12.781 2.771,-13.156 2.729,-13.437C2.688,-13.729 2.594,-13.958 2.458,-14.125C2.318,-14.292 2.125,-14.401 1.875,-14.458C1.635,-14.526 1.318,-14.573 0.917,-14.604L0.917,-15.396L7.813,-15.396L7.813,-14.604C7.365,-14.589 7.005,-14.547 6.729,-14.479C6.448,-14.406 6.234,-14.281 6.083,-14.104C5.943,-13.937 5.854,-13.698 5.813,-13.396C5.771,-13.089 5.75,-12.687 5.75,-12.187L5.75,-3.792C5.75,-3.234 5.802,-2.776 5.917,-2.417C6.026,-2.068 6.219,-1.797 6.5,-1.604C6.776,-1.406 7.146,-1.276 7.604,-1.208C8.073,-1.135 8.656,-1.104 9.354,-1.104C10.13,-1.104 10.776,-1.146 11.292,-1.229C11.818,-1.323 12.255,-1.505 12.604,-1.771C12.964,-2.031 13.25,-2.38 13.458,-2.812C13.667,-3.255 13.844,-3.833 14,-4.542L14.792,-4.542L14.479,0Z" style="fill:rgb(14,38,48);fill-rule:nonzero;"/>
            </g>
        </g>
    </g>
    <g transform="matrix(1,0,0,1,361.19,361.314)">
        <g>
            <g>
                <path d="M5.75,-8.521C6.594,-8.521 7.276,-8.547 7.792,-8.604C8.318,-8.656 8.719,-8.771 9,-8.937C9.292,-9.104 9.49,-9.344 9.604,-9.667C9.729,-9.984 9.823,-10.417 9.896,-10.958L10.646,-10.958L10.646,-5.104L9.896,-5.104C9.813,-5.63 9.698,-6.052 9.563,-6.375C9.438,-6.693 9.229,-6.937 8.938,-7.104C8.646,-7.271 8.25,-7.375 7.75,-7.417C7.25,-7.469 6.583,-7.5 5.75,-7.5L5.75,-3.375C5.75,-2.958 5.802,-2.594 5.917,-2.292C6.026,-2 6.214,-1.76 6.479,-1.583C6.74,-1.401 7.094,-1.276 7.542,-1.208C7.984,-1.135 8.526,-1.104 9.167,-1.104C9.917,-1.104 10.552,-1.151 11.083,-1.25C11.609,-1.359 12.047,-1.547 12.396,-1.812C12.74,-2.089 13.021,-2.448 13.229,-2.896C13.448,-3.339 13.63,-3.901 13.771,-4.583L14.583,-4.583L14.25,0L0.708,0L0.708,-0.792C1.135,-0.802 1.49,-0.844 1.771,-0.917C2.063,-0.984 2.276,-1.094 2.417,-1.25C2.568,-1.417 2.667,-1.646 2.708,-1.937C2.76,-2.229 2.792,-2.609 2.792,-3.083L2.792,-12.312C2.792,-12.781 2.771,-13.156 2.729,-13.437C2.688,-13.729 2.594,-13.958 2.458,-14.125C2.318,-14.292 2.125,-14.401 1.875,-14.458C1.635,-14.526 1.318,-14.573 0.917,-14.604L0.917,-15.396L13.563,-15.396L13.708,-11.479L12.833,-11.479C12.76,-12.031 12.635,-12.49 12.458,-12.854C12.292,-13.229 12.047,-13.526 11.729,-13.75C11.422,-13.969 11.026,-14.125 10.542,-14.208C10.052,-14.292 9.458,-14.333 8.75,-14.333L6.5,-14.333C6.151,-14.333 5.938,-14.292 5.854,-14.208C5.781,-14.125 5.75,-13.922 5.75,-13.604L5.75,-8.521Z" style="fill:rgb(14,38,48);fill-rule:nonzero;"/>
            </g>
        </g>
    </g>
    <g transform="matrix(1,0,0,1,376.47,361.314)">
        <g>
            <g>
                <path d="M11.625,-3.75L16.25,-15.396L22.083,-15.396L22.083,-14.604C21.635,-14.604 21.276,-14.552 21,-14.458C20.734,-14.375 20.526,-14.219 20.375,-14C20.234,-13.776 20.135,-13.464 20.083,-13.062C20.042,-12.672 20.021,-12.177 20.021,-11.583L20.021,-3.812C20.021,-3.146 20.047,-2.615 20.104,-2.229C20.156,-1.854 20.26,-1.552 20.417,-1.333C20.583,-1.125 20.813,-0.984 21.104,-0.917C21.406,-0.844 21.802,-0.802 22.292,-0.792L22.292,0L14.771,0L14.771,-0.792C15.271,-0.802 15.667,-0.844 15.958,-0.917C16.26,-1 16.5,-1.135 16.667,-1.333C16.833,-1.542 16.943,-1.823 17,-2.187C17.052,-2.562 17.083,-3.062 17.083,-3.687L17.083,-13.042L16.979,-13.042L11.604,0.208L10.125,0.208L4.563,-13.042L4.479,-13.042L4.479,-3.812C4.479,-3.146 4.505,-2.615 4.563,-2.229C4.615,-1.854 4.719,-1.552 4.875,-1.333C5.042,-1.125 5.271,-0.984 5.563,-0.917C5.865,-0.844 6.26,-0.802 6.75,-0.792L6.75,0L0.604,0L0.604,-0.792C1.089,-0.802 1.484,-0.844 1.792,-0.917C2.094,-1 2.333,-1.135 2.5,-1.333C2.667,-1.542 2.776,-1.823 2.833,-2.187C2.885,-2.562 2.917,-3.062 2.917,-3.687L2.917,-11.729C2.917,-12.281 2.885,-12.75 2.833,-13.125C2.776,-13.5 2.672,-13.792 2.521,-14C2.38,-14.219 2.172,-14.375 1.896,-14.458C1.63,-14.552 1.271,-14.604 0.813,-14.604L0.813,-15.396L6.875,-15.396L11.542,-3.75L11.625,-3.75Z" style="fill:rgb(14,38,48);fill-rule:nonzero;"/>
            </g>
        </g>
    </g>
    <g transform="matrix(1,0,0,1,399.37,361.314)">
        <g>
            <g>
                <path d="M5.75,-8.521C6.594,-8.521 7.276,-8.547 7.792,-8.604C8.318,-8.656 8.719,-8.771 9,-8.937C9.292,-9.104 9.49,-9.344 9.604,-9.667C9.729,-9.984 9.823,-10.417 9.896,-10.958L10.646,-10.958L10.646,-5.104L9.896,-5.104C9.813,-5.63 9.698,-6.052 9.563,-6.375C9.438,-6.693 9.229,-6.937 8.938,-7.104C8.646,-7.271 8.25,-7.375 7.75,-7.417C7.25,-7.469 6.583,-7.5 5.75,-7.5L5.75,-3.375C5.75,-2.958 5.802,-2.594 5.917,-2.292C6.026,-2 6.214,-1.76 6.479,-1.583C6.74,-1.401 7.094,-1.276 7.542,-1.208C7.984,-1.135 8.526,-1.104 9.167,-1.104C9.917,-1.104 10.552,-1.151 11.083,-1.25C11.609,-1.359 12.047,-1.547 12.396,-1.812C12.74,-2.089 13.021,-2.448 13.229,-2.896C13.448,-3.339 13.63,-3.901 13.771,-4.583L14.583,-4.583L14.25,0L0.708,0L0.708,-0.792C1.135,-0.802 1.49,-0.844 1.771,-0.917C2.063,-0.984 2.276,-1.094 2.417,-1.25C2.568,-1.417 2.667,-1.646 2.708,-1.937C2.76,-2.229 2.792,-2.609 2.792,-3.083L2.792,-12.312C2.792,-12.781 2.771,-13.156 2.729,-13.437C2.688,-13.729 2.594,-13.958 2.458,-14.125C2.318,-14.292 2.125,-14.401 1.875,-14.458C1.635,-14.526 1.318,-14.573 0.917,-14.604L0.917,-15.396L13.563,-15.396L13.708,-11.479L12.833,-11.479C12.76,-12.031 12.635,-12.49 12.458,-12.854C12.292,-13.229 12.047,-13.526 11.729,-13.75C11.422,-13.969 11.026,-14.125 10.542,-14.208C10.052,-14.292 9.458,-14.333 8.75,-14.333L6.5,-14.333C6.151,-14.333 5.938,-14.292 5.854,-14.208C5.781,-14.125 5.75,-13.922 5.75,-13.604L5.75,-8.521Z" style="fill:rgb(14,38,48);fill-rule:nonzero;"/>
            </g>
        </g>
    </g>
    <g transform="matrix(1,0,0,1,414.65,361.314)">
        <g>
            <g>
                <path d="M13.396,0.208L4.542,-12.417L4.458,-12.417L4.458,-3.812C4.458,-3.146 4.479,-2.615 4.521,-2.229C4.573,-1.854 4.677,-1.552 4.833,-1.333C4.984,-1.125 5.193,-0.984 5.458,-0.917C5.734,-0.844 6.094,-0.802 6.542,-0.792L6.542,0L0.604,0L0.604,-0.792C1.089,-0.802 1.484,-0.844 1.792,-0.917C2.094,-1 2.333,-1.135 2.5,-1.333C2.667,-1.542 2.771,-1.823 2.813,-2.187C2.865,-2.562 2.896,-3.062 2.896,-3.687L2.896,-11.729C2.896,-12.281 2.865,-12.74 2.813,-13.104C2.771,-13.479 2.672,-13.771 2.521,-13.979C2.365,-14.187 2.151,-14.333 1.875,-14.417C1.609,-14.51 1.25,-14.573 0.792,-14.604L0.792,-15.396L6.375,-15.396L14.438,-3.833L14.521,-3.833L14.521,-11.583C14.521,-12.234 14.49,-12.755 14.438,-13.146C14.396,-13.547 14.297,-13.854 14.146,-14.062C13.99,-14.271 13.776,-14.406 13.5,-14.479C13.234,-14.547 12.88,-14.589 12.438,-14.604L12.438,-15.396L18.375,-15.396L18.375,-14.604C17.885,-14.589 17.49,-14.542 17.188,-14.458C16.896,-14.385 16.667,-14.25 16.5,-14.042C16.333,-13.844 16.219,-13.562 16.167,-13.187C16.109,-12.823 16.083,-12.339 16.083,-11.729L16.083,0.208L13.396,0.208Z" style="fill:rgb(14,38,48);fill-rule:nonzero;"/>
            </g>
        </g>
    </g>
    <g transform="matrix(1,0,0,1,433.45,361.314)">
        <g>
            <g>
                <path d="M16.292,-11L15.438,-11C15.396,-11.651 15.297,-12.193 15.146,-12.625C14.99,-13.052 14.776,-13.401 14.5,-13.667C14.219,-13.927 13.88,-14.109 13.479,-14.208C13.073,-14.302 12.609,-14.354 12.083,-14.354C11.552,-14.354 11.13,-14.339 10.813,-14.312C10.505,-14.297 10.271,-14.271 10.104,-14.229C9.938,-14.187 9.823,-14.125 9.771,-14.042C9.729,-13.958 9.708,-13.859 9.708,-13.75L9.708,-3.25C9.708,-2.833 9.734,-2.469 9.792,-2.167C9.844,-1.859 9.964,-1.609 10.146,-1.417C10.339,-1.219 10.615,-1.068 10.979,-0.958C11.339,-0.859 11.813,-0.802 12.396,-0.792L12.396,0L4.021,0L4.021,-0.792C4.615,-0.802 5.094,-0.859 5.458,-0.958C5.818,-1.068 6.094,-1.219 6.292,-1.417C6.484,-1.609 6.609,-1.859 6.667,-2.167C6.719,-2.469 6.75,-2.833 6.75,-3.25L6.75,-13.75C6.75,-13.859 6.729,-13.958 6.688,-14.042C6.646,-14.125 6.547,-14.187 6.396,-14.229C6.255,-14.271 6.047,-14.297 5.771,-14.312C5.49,-14.339 5.135,-14.354 4.708,-14.354C4.219,-14.354 3.755,-14.333 3.313,-14.292C2.88,-14.25 2.5,-14.115 2.167,-13.896C1.833,-13.672 1.563,-13.339 1.354,-12.896C1.146,-12.448 1.031,-11.818 1.021,-11L0.25,-11L0.438,-15.396L16.104,-15.396L16.292,-11Z" style="fill:rgb(14,38,48);fill-rule:nonzero;"/>
            </g>
        </g>
    </g>
</svg>
