<svg xmlns="http://www.w3.org/2000/svg" xmlns:xlink="http://www.w3.org/1999/xlink" width="1080" zoomAndPan="magnify" viewBox="0 0 810 809.999993" height="1080" preserveAspectRatio="xMidYMid meet" version="1.0"><defs><g/></defs><g fill="#ffffff" fill-opacity="0.4"><g transform="translate(245.373054, 641.02937)"><g><path d="M 203.90625 -390.703125 C 222.351562 -390.703125 238.378906 -389.160156 251.984375 -386.078125 C 265.597656 -383.003906 276.925781 -378.742188 285.96875 -373.296875 C 295.019531 -367.859375 301.785156 -361.453125 306.265625 -354.078125 C 310.742188 -346.703125 312.984375 -338.710938 312.984375 -330.109375 C 312.984375 -324.304688 311.796875 -319.078125 309.421875 -314.421875 C 307.046875 -309.773438 303.75 -305.828125 299.53125 -302.578125 C 295.320312 -299.328125 290.363281 -296.820312 284.65625 -295.0625 C 278.945312 -293.3125 272.753906 -292.4375 266.078125 -292.4375 C 266.078125 -300.863281 264.976562 -309.203125 262.78125 -317.453125 C 260.59375 -325.710938 256.992188 -333.132812 251.984375 -339.71875 C 246.984375 -346.300781 240.488281 -351.65625 232.5 -355.78125 C 224.507812 -359.914062 214.628906 -361.984375 202.859375 -361.984375 C 182.484375 -361.984375 165.179688 -358.25 150.953125 -350.78125 C 136.734375 -343.320312 125.144531 -332.429688 116.1875 -318.109375 C 107.226562 -303.796875 100.726562 -286.144531 96.6875 -265.15625 C 92.644531 -244.175781 90.625 -220.160156 90.625 -193.109375 C 90.625 -169.046875 92.726562 -147.003906 96.9375 -126.984375 C 101.15625 -106.960938 107.832031 -89.789062 116.96875 -75.46875 C 126.101562 -61.15625 137.738281 -50.046875 151.875 -42.140625 C 166.019531 -34.242188 183.015625 -30.296875 202.859375 -30.296875 C 216.023438 -30.296875 227.65625 -31.566406 237.75 -34.109375 C 247.851562 -36.660156 256.769531 -40.039062 264.5 -44.25 C 272.226562 -48.46875 279.035156 -53.34375 284.921875 -58.875 C 290.804688 -64.414062 296.03125 -70.171875 300.59375 -76.140625 C 303.582031 -74.203125 306.039062 -71.566406 307.96875 -68.234375 C 309.90625 -64.898438 310.875 -60.507812 310.875 -55.0625 C 310.875 -48.207031 308.546875 -41.222656 303.890625 -34.109375 C 299.234375 -27.003906 292.160156 -20.550781 282.671875 -14.75 C 273.191406 -8.957031 261.160156 -4.171875 246.578125 -0.390625 C 232.003906 3.378906 214.707031 5.265625 194.6875 5.265625 C 167.8125 5.265625 144.1875 0.523438 123.8125 -8.953125 C 103.445312 -18.441406 86.367188 -31.878906 72.578125 -49.265625 C 58.796875 -66.648438 48.390625 -87.550781 41.359375 -111.96875 C 34.335938 -136.382812 30.828125 -163.429688 30.828125 -193.109375 C 30.828125 -222.265625 34.515625 -248.957031 41.890625 -273.1875 C 49.265625 -297.425781 60.195312 -318.238281 74.6875 -335.625 C 89.175781 -353.019531 107.222656 -366.546875 128.828125 -376.203125 C 150.429688 -385.867188 175.457031 -390.703125 203.90625 -390.703125 Z M 203.90625 -390.703125 "/></g></g></g><g fill="#2b9eae" fill-opacity="1"><g transform="translate(234.008209, 625.947721)"><g><path d="M 203.90625 -390.703125 C 222.351562 -390.703125 238.378906 -389.160156 251.984375 -386.078125 C 265.597656 -383.003906 276.925781 -378.742188 285.96875 -373.296875 C 295.019531 -367.859375 301.785156 -361.453125 306.265625 -354.078125 C 310.742188 -346.703125 312.984375 -338.710938 312.984375 -330.109375 C 312.984375 -324.304688 311.796875 -319.078125 309.421875 -314.421875 C 307.046875 -309.773438 303.75 -305.828125 299.53125 -302.578125 C 295.320312 -299.328125 290.363281 -296.820312 284.65625 -295.0625 C 278.945312 -293.3125 272.753906 -292.4375 266.078125 -292.4375 C 266.078125 -300.863281 264.976562 -309.203125 262.78125 -317.453125 C 260.59375 -325.710938 256.992188 -333.132812 251.984375 -339.71875 C 246.984375 -346.300781 240.488281 -351.65625 232.5 -355.78125 C 224.507812 -359.914062 214.628906 -361.984375 202.859375 -361.984375 C 182.484375 -361.984375 165.179688 -358.25 150.953125 -350.78125 C 136.734375 -343.320312 125.144531 -332.429688 116.1875 -318.109375 C 107.226562 -303.796875 100.726562 -286.144531 96.6875 -265.15625 C 92.644531 -244.175781 90.625 -220.160156 90.625 -193.109375 C 90.625 -169.046875 92.726562 -147.003906 96.9375 -126.984375 C 101.15625 -106.960938 107.832031 -89.789062 116.96875 -75.46875 C 126.101562 -61.15625 137.738281 -50.046875 151.875 -42.140625 C 166.019531 -34.242188 183.015625 -30.296875 202.859375 -30.296875 C 216.023438 -30.296875 227.65625 -31.566406 237.75 -34.109375 C 247.851562 -36.660156 256.769531 -40.039062 264.5 -44.25 C 272.226562 -48.46875 279.035156 -53.34375 284.921875 -58.875 C 290.804688 -64.414062 296.03125 -70.171875 300.59375 -76.140625 C 303.582031 -74.203125 306.039062 -71.566406 307.96875 -68.234375 C 309.90625 -64.898438 310.875 -60.507812 310.875 -55.0625 C 310.875 -48.207031 308.546875 -41.222656 303.890625 -34.109375 C 299.234375 -27.003906 292.160156 -20.550781 282.671875 -14.75 C 273.191406 -8.957031 261.160156 -4.171875 246.578125 -0.390625 C 232.003906 3.378906 214.707031 5.265625 194.6875 5.265625 C 167.8125 5.265625 144.1875 0.523438 123.8125 -8.953125 C 103.445312 -18.441406 86.367188 -31.878906 72.578125 -49.265625 C 58.796875 -66.648438 48.390625 -87.550781 41.359375 -111.96875 C 34.335938 -136.382812 30.828125 -163.429688 30.828125 -193.109375 C 30.828125 -222.265625 34.515625 -248.957031 41.890625 -273.1875 C 49.265625 -297.425781 60.195312 -318.238281 74.6875 -335.625 C 89.175781 -353.019531 107.222656 -366.546875 128.828125 -376.203125 C 150.429688 -385.867188 175.457031 -390.703125 203.90625 -390.703125 Z M 203.90625 -390.703125 "/></g></g></g><g fill="#0c346a" fill-opacity="0.4"><g transform="translate(264.830527, 639.019824)"><g><path d="M -2.640625 -30.328125 C 35.390625 -58.242188 73.742188 -130.117188 112.421875 -245.953125 C 134.847656 -313.429688 150.457031 -374.316406 159.25 -428.609375 C 161.664062 -443.773438 162.875 -455.425781 162.875 -463.5625 C 153.863281 -463.125 145.507812 -460.707031 137.8125 -456.3125 L 113.09375 -442.140625 C 106.28125 -438.398438 97.210938 -441.363281 85.890625 -451.03125 C 74.566406 -460.707031 69.398438 -468.894531 70.390625 -475.59375 C 71.378906 -482.300781 75.113281 -487.796875 81.59375 -492.078125 C 88.082031 -496.367188 95.613281 -500.050781 104.1875 -503.125 C 122.207031 -509.5 137.316406 -512.6875 149.515625 -512.6875 C 161.710938 -512.6875 172.484375 -511.75 181.828125 -509.875 C 191.171875 -508.007812 199.691406 -504.878906 207.390625 -500.484375 C 224.972656 -490.378906 233.984375 -475.875 234.421875 -456.96875 C 235.296875 -424.21875 224.195312 -368.609375 201.125 -290.140625 C 164.632812 -165.953125 121.769531 -78.691406 72.53125 -28.359375 C 59.125 -14.503906 45.164062 -5.050781 30.65625 0 C 26.707031 1.539062 22.695312 2.3125 18.625 2.3125 C 14.5625 2.3125 10.878906 1.59375 7.578125 0.15625 C 4.285156 -1.269531 1.539062 -3.082031 -0.65625 -5.28125 C -5.269531 -9.457031 -7.578125 -14.070312 -7.578125 -19.125 C -7.578125 -24.175781 -5.929688 -27.910156 -2.640625 -30.328125 Z M -2.640625 -30.328125 "/></g></g></g><g fill="#0c346a" fill-opacity="1"><g transform="translate(248.990881, 641.528575)"><g><path d="M -2.640625 -30.328125 C 35.390625 -58.242188 73.742188 -130.117188 112.421875 -245.953125 C 134.847656 -313.429688 150.457031 -374.316406 159.25 -428.609375 C 161.664062 -443.773438 162.875 -455.425781 162.875 -463.5625 C 153.863281 -463.125 145.507812 -460.707031 137.8125 -456.3125 L 113.09375 -442.140625 C 106.28125 -438.398438 97.210938 -441.363281 85.890625 -451.03125 C 74.566406 -460.707031 69.398438 -468.894531 70.390625 -475.59375 C 71.378906 -482.300781 75.113281 -487.796875 81.59375 -492.078125 C 88.082031 -496.367188 95.613281 -500.050781 104.1875 -503.125 C 122.207031 -509.5 137.316406 -512.6875 149.515625 -512.6875 C 161.710938 -512.6875 172.484375 -511.75 181.828125 -509.875 C 191.171875 -508.007812 199.691406 -504.878906 207.390625 -500.484375 C 224.972656 -490.378906 233.984375 -475.875 234.421875 -456.96875 C 235.296875 -424.21875 224.195312 -368.609375 201.125 -290.140625 C 164.632812 -165.953125 121.769531 -78.691406 72.53125 -28.359375 C 59.125 -14.503906 45.164062 -5.050781 30.65625 0 C 26.707031 1.539062 22.695312 2.3125 18.625 2.3125 C 14.5625 2.3125 10.878906 1.59375 7.578125 0.15625 C 4.285156 -1.269531 1.539062 -3.082031 -0.65625 -5.28125 C -5.269531 -9.457031 -7.578125 -14.070312 -7.578125 -19.125 C -7.578125 -24.175781 -5.929688 -27.910156 -2.640625 -30.328125 Z M -2.640625 -30.328125 "/></g></g></g></svg>