<?xml version="1.0" encoding="UTF-8" standalone="no"?>
<!DOCTYPE svg PUBLIC "-//W3C//DTD SVG 1.1//EN" "http://www.w3.org/Graphics/SVG/1.1/DTD/svg11.dtd">
<svg width="100%" height="100%" viewBox="0 0 500 500" version="1.1" xmlns="http://www.w3.org/2000/svg" xmlns:xlink="http://www.w3.org/1999/xlink" xml:space="preserve" xmlns:serif="http://www.serif.com/" style="fill-rule:evenodd;clip-rule:evenodd;stroke-linejoin:round;stroke-miterlimit:2;">
    <g>
        <path d="M249.979,84.203C249.302,84.203 248.641,84.281 248.01,84.427L248.01,67.057C248.01,65.021 249.677,63.349 251.719,63.349L273.792,63.349L273.792,65.292C273.792,65.693 273.844,66.078 273.938,66.453L251.625,66.453C251.344,66.453 251.109,66.682 251.109,66.969L251.109,84.276C250.74,84.229 250.365,84.203 249.979,84.203ZM249.979,99.651C253.667,99.651 256.656,96.661 256.656,92.974C256.656,89.286 253.667,86.297 249.979,86.297C246.292,86.297 243.302,89.286 243.302,92.974C243.302,96.661 246.292,99.651 249.979,99.651ZM263.229,86.109C263.188,86.307 263.24,86.495 263.365,86.651C263.495,86.807 263.667,86.891 263.87,86.891L280.406,86.891C280.609,86.891 280.781,86.807 280.911,86.651C281.042,86.495 281.089,86.307 281.047,86.109C280.229,81.938 276.552,78.786 272.141,78.786C267.724,78.786 264.047,81.938 263.229,86.109ZM272.141,68.297C269.604,68.297 267.547,70.354 267.547,72.891C267.547,75.427 269.604,77.479 272.141,77.479C274.672,77.479 276.729,75.427 276.729,72.891C276.729,70.354 274.672,68.297 272.141,68.297ZM293.167,90.042L258.245,90.042C258.573,90.958 258.75,91.943 258.75,92.974C258.75,94.146 258.516,95.271 258.099,96.292L264.552,96.292L264.552,102.188L259.495,102.188C261.203,103.547 262.625,105.266 263.625,107.245L288.531,107.245L288.531,104.714C288.531,103.323 287.109,102.188 285.37,102.188L279.724,102.188L279.724,96.292L292.557,96.292C294.599,96.292 296.266,94.625 296.266,92.583L296.266,69.922L293.167,69.922L293.167,90.042ZM299.583,52.547L299.583,65.292C299.583,66.688 298.443,67.833 297.042,67.833L285.552,67.833L281.698,71.839C281.51,72.036 281.24,72.094 280.984,71.995C280.734,71.891 280.573,71.661 280.573,71.385L280.573,67.833L278.422,67.833C277.026,67.833 275.88,66.688 275.88,65.292L275.88,52.547C275.88,51.151 277.026,50.005 278.422,50.005L297.042,50.005C298.443,50.005 299.583,51.146 299.583,52.547ZM295.453,62.995C295.453,62.422 294.984,61.953 294.406,61.953L280.833,61.953C280.26,61.953 279.792,62.422 279.792,62.995C279.792,63.573 280.26,64.042 280.833,64.042L294.406,64.042C294.984,64.042 295.453,63.573 295.453,62.995ZM295.453,58.964C295.453,58.385 294.984,57.917 294.406,57.917L280.833,57.917C280.26,57.917 279.792,58.385 279.792,58.964C279.792,59.542 280.26,60.01 280.833,60.01L294.406,60.01C294.984,60.01 295.453,59.542 295.453,58.964ZM295.453,54.927C295.453,54.349 294.984,53.885 294.406,53.885L280.833,53.885C280.26,53.885 279.792,54.349 279.792,54.927C279.792,55.505 280.26,55.974 280.833,55.974L294.406,55.974C294.984,55.974 295.453,55.505 295.453,54.927ZM249.979,100.958C243.427,100.958 237.995,105.729 236.953,111.984C236.922,112.177 236.969,112.359 237.099,112.51C237.229,112.667 237.396,112.745 237.599,112.745L262.365,112.745C262.563,112.745 262.734,112.667 262.859,112.51C262.99,112.359 263.042,112.177 263.005,111.984C261.969,105.729 256.531,100.958 249.979,100.958Z" style="fill:rgb(12,52,106);fill-rule:nonzero;"/>
    </g>
    <g transform="matrix(1,0,0,1,169.359,320.075)">
        <g>
            <g>
                <path d="M80.813,-154.833C88.115,-154.833 94.464,-154.219 99.854,-153C105.255,-151.776 109.75,-150.089 113.333,-147.937C116.917,-145.781 119.589,-143.24 121.354,-140.312C123.13,-137.396 124.021,-134.229 124.021,-130.812C124.021,-128.521 123.547,-126.448 122.604,-124.604C121.672,-122.755 120.365,-121.187 118.688,-119.896C117.021,-118.615 115.052,-117.625 112.792,-116.917C110.542,-116.219 108.089,-115.875 105.438,-115.875C105.438,-119.219 105,-122.526 104.125,-125.792C103.26,-129.068 101.839,-132.01 99.854,-134.625C97.865,-137.234 95.292,-139.354 92.125,-140.979C88.958,-142.615 85.047,-143.437 80.396,-143.437C72.313,-143.437 65.448,-141.958 59.813,-139C54.188,-136.042 49.594,-131.729 46.042,-126.062C42.484,-120.396 39.906,-113.401 38.313,-105.083C36.714,-96.76 35.917,-87.24 35.917,-76.521C35.917,-66.99 36.75,-58.255 38.417,-50.312C40.083,-42.38 42.729,-35.573 46.354,-29.896C49.979,-24.229 54.589,-19.823 60.188,-16.687C65.781,-13.562 72.521,-12 80.396,-12C85.604,-12 90.208,-12.505 94.208,-13.521C98.219,-14.531 101.755,-15.875 104.813,-17.542C107.88,-19.208 110.583,-21.135 112.917,-23.333C115.25,-25.526 117.318,-27.802 119.125,-30.167C120.302,-29.401 121.276,-28.359 122.042,-27.042C122.802,-25.719 123.188,-23.979 123.188,-21.812C123.188,-19.104 122.26,-16.339 120.417,-13.521C118.583,-10.698 115.781,-8.135 112.021,-5.833C108.255,-3.542 103.484,-1.646 97.708,-0.146C91.943,1.339 85.089,2.083 77.146,2.083C66.505,2.083 57.146,0.208 49.063,-3.542C40.99,-7.302 34.219,-12.63 28.75,-19.521C23.292,-26.406 19.167,-34.687 16.375,-44.354C13.594,-54.031 12.208,-64.755 12.208,-76.521C12.208,-88.073 13.667,-98.651 16.583,-108.25C19.51,-117.859 23.844,-126.109 29.583,-133C35.333,-139.885 42.484,-145.25 51.042,-149.083C59.609,-152.917 69.531,-154.833 80.813,-154.833Z" style="fill:rgb(43,158,174);fill-rule:nonzero;"/>
            </g>
        </g>
    </g>
    <g transform="matrix(1,0,0,1,181.573,325.256)">
        <g>
            <g>
                <path d="M-1.042,-12.021C14.026,-23.073 29.229,-51.562 44.563,-97.479C53.438,-124.214 59.615,-148.339 63.104,-169.854C64.063,-175.865 64.542,-180.484 64.542,-183.708C60.969,-183.526 57.656,-182.568 54.604,-180.833L44.813,-175.208C42.115,-173.719 38.526,-174.896 34.042,-178.729C29.552,-182.562 27.505,-185.802 27.896,-188.458C28.281,-191.125 29.76,-193.302 32.333,-195C34.901,-196.693 37.885,-198.151 41.292,-199.375C48.427,-201.901 54.417,-203.167 59.25,-203.167C64.083,-203.167 68.344,-202.797 72.042,-202.062C75.75,-201.323 79.13,-200.083 82.188,-198.333C89.146,-194.333 92.714,-188.583 92.896,-181.083C93.24,-168.109 88.844,-146.073 79.708,-114.979C65.25,-65.771 48.26,-31.187 28.75,-11.229C23.427,-5.74 17.896,-2 12.146,0C10.573,0.609 8.984,0.917 7.375,0.917C5.76,0.917 4.302,0.63 3,0.063C1.693,-0.505 0.604,-1.219 -0.271,-2.083C-2.089,-3.75 -3,-5.583 -3,-7.583C-3,-9.583 -2.344,-11.062 -1.042,-12.021Z" style="fill:rgb(12,52,106);fill-opacity:0.4;fill-rule:nonzero;"/>
            </g>
        </g>
    </g>
    <g transform="matrix(1,0,0,1,175.296,326.25)">
        <g>
            <g>
                <path d="M-1.042,-12.021C14.026,-23.073 29.229,-51.562 44.563,-97.479C53.438,-124.214 59.615,-148.339 63.104,-169.854C64.063,-175.865 64.542,-180.484 64.542,-183.708C60.969,-183.526 57.656,-182.568 54.604,-180.833L44.813,-175.208C42.115,-173.719 38.526,-174.896 34.042,-178.729C29.552,-182.562 27.505,-185.802 27.896,-188.458C28.281,-191.125 29.76,-193.302 32.333,-195C34.901,-196.693 37.885,-198.151 41.292,-199.375C48.427,-201.901 54.417,-203.167 59.25,-203.167C64.083,-203.167 68.344,-202.797 72.042,-202.062C75.75,-201.323 79.13,-200.083 82.188,-198.333C89.146,-194.333 92.714,-188.583 92.896,-181.083C93.24,-168.109 88.844,-146.073 79.708,-114.979C65.25,-65.771 48.26,-31.187 28.75,-11.229C23.427,-5.74 17.896,-2 12.146,0C10.573,0.609 8.984,0.917 7.375,0.917C5.76,0.917 4.302,0.63 3,0.063C1.693,-0.505 0.604,-1.219 -0.271,-2.083C-2.089,-3.75 -3,-5.583 -3,-7.583C-3,-9.583 -2.344,-11.062 -1.042,-12.021Z" style="fill:rgb(12,52,106);fill-rule:nonzero;"/>
            </g>
        </g>
    </g>
    <g transform="matrix(1,0,0,1,269.06,276.159)">
        <g>
            <g>
                <path d="M19.375,-49.187C18.469,-48.562 17.464,-47.896 16.354,-47.187C15.255,-46.479 14.198,-45.906 13.188,-45.479C13.089,-42.573 13.01,-39.927 12.958,-37.542C12.901,-35.151 12.844,-33 12.792,-31.083C12.734,-29.167 12.693,-27.464 12.667,-25.979C12.651,-24.505 12.63,-23.214 12.604,-22.104C12.563,-19.521 12.547,-17.547 12.563,-16.187C12.521,-14.573 12.75,-13.005 13.25,-11.479C13.75,-9.964 14.563,-8.604 15.688,-7.396C16.813,-6.187 18.281,-5.219 20.104,-4.5C21.922,-3.776 24.125,-3.417 26.708,-3.417C28.109,-3.458 29.573,-3.656 31.104,-4.021C32.396,-4.339 33.823,-4.812 35.396,-5.437C36.964,-6.073 38.5,-7.01 40,-8.25L40,-45.062C39.677,-45.115 39.344,-45.146 39,-45.146L38.021,-45.146C37.38,-45.146 36.75,-45.125 36.125,-45.083C35.5,-45.052 34.927,-45.005 34.417,-44.937C35.469,-45.896 36.417,-46.625 37.25,-47.125C38.083,-47.625 38.792,-48 39.375,-48.25C40.052,-48.51 40.646,-48.667 41.146,-48.708C41.573,-48.708 42.115,-48.714 42.771,-48.729C43.438,-48.74 44.135,-48.755 44.875,-48.771C45.625,-48.797 46.375,-48.823 47.125,-48.854C47.885,-48.896 48.589,-48.927 49.229,-48.958C49.88,-49 50.438,-49.031 50.896,-49.062C51.365,-49.104 51.688,-49.146 51.854,-49.187C51.063,-48.615 50.167,-48.021 49.167,-47.396C48.177,-46.771 47.234,-46.255 46.333,-45.854L46.333,-10.729C46.302,-9.615 46.234,-8.583 46.125,-7.625C46.01,-6.802 45.859,-6.005 45.667,-5.229C45.469,-4.448 45.177,-3.906 44.792,-3.604C46.068,-3.422 47.193,-3.312 48.167,-3.271C49.151,-3.229 50.005,-3.208 50.729,-3.208C52.021,-3.208 52.948,-3.25 53.521,-3.333C54.089,-3.427 54.406,-3.5 54.479,-3.542C53.406,-2.927 52.427,-2.401 51.542,-1.958C50.651,-1.51 49.818,-1.146 49.042,-0.854C48.26,-0.573 47.5,-0.359 46.75,-0.208C46.01,-0.068 45.271,0 44.521,0L37.875,0C38.401,-0.177 38.802,-0.573 39.083,-1.187C39.375,-1.797 39.589,-2.437 39.729,-3.104C39.88,-3.854 39.969,-4.677 40,-5.583L40,-7.187C37.583,-5.229 35.281,-3.729 33.104,-2.687C30.922,-1.646 28.984,-0.885 27.292,-0.417C25.318,0.151 23.458,0.469 21.708,0.542C18.844,0.542 16.443,0.167 14.5,-0.583C12.552,-1.344 11,-2.406 9.833,-3.771C8.667,-5.146 7.833,-6.781 7.333,-8.687C6.844,-10.589 6.635,-12.693 6.708,-15C6.693,-16.875 6.708,-19.24 6.75,-22.104C6.76,-24.562 6.797,-27.677 6.854,-31.458C6.922,-35.234 7.01,-39.797 7.125,-45.146L5.583,-45.146C4.943,-45.146 4.302,-45.125 3.667,-45.083C3.042,-45.052 2.464,-45.005 1.938,-44.937C3.005,-45.896 3.948,-46.625 4.771,-47.125C5.604,-47.625 6.318,-48 6.917,-48.25C7.594,-48.51 8.198,-48.667 8.729,-48.708C9.156,-48.708 9.698,-48.714 10.354,-48.729C11.021,-48.74 11.719,-48.755 12.458,-48.771C13.193,-48.797 13.938,-48.823 14.688,-48.854C15.448,-48.896 16.156,-48.927 16.813,-48.958C17.464,-49 18.01,-49.031 18.458,-49.062C18.917,-49.104 19.219,-49.146 19.375,-49.187ZM54.479,-3.542L54.479,-3.583L54.5,-3.583C54.526,-3.594 54.552,-3.604 54.583,-3.604L54.479,-3.542Z" style="fill:rgb(12,52,106);fill-rule:nonzero;"/>
            </g>
        </g>
    </g>
    <g transform="matrix(1,0,0,1,323.261,276.159)">
        <g>
            <g>
                <path d="M37.125,-16.458C37.125,-14.292 36.688,-12.38 35.813,-10.729C34.948,-9.089 33.818,-7.656 32.417,-6.437C31.01,-5.229 29.438,-4.208 27.688,-3.375C25.948,-2.552 24.208,-1.896 22.458,-1.396C20.708,-0.896 19.031,-0.531 17.438,-0.312C15.854,-0.104 14.526,0 13.458,0L4.125,0C4.458,-0.026 4.76,-0.13 5.042,-0.312C5.318,-0.49 5.552,-0.734 5.75,-1.042C5.958,-1.344 6.13,-1.687 6.271,-2.062C6.422,-2.437 6.563,-2.823 6.688,-3.229C6.922,-4.146 7.068,-5.198 7.125,-6.396C7.193,-7.88 7.281,-10.276 7.396,-13.583C7.438,-15 7.49,-16.677 7.563,-18.625C7.63,-20.583 7.698,-22.854 7.771,-25.437C7.854,-28.031 7.948,-30.979 8.063,-34.271C8.188,-37.562 8.318,-41.255 8.458,-45.354C7.609,-45.297 6.646,-45.255 5.563,-45.229C4.49,-45.214 3.281,-45.229 1.938,-45.271L8.313,-48.854C9.089,-48.781 9.906,-48.729 10.771,-48.687C11.63,-48.646 12.479,-48.625 13.313,-48.625L15.708,-48.625C16.458,-48.635 17.115,-48.667 17.688,-48.708C18.339,-48.76 18.948,-48.812 19.521,-48.854C21.172,-48.854 22.854,-48.714 24.563,-48.437C26.281,-48.172 27.839,-47.667 29.229,-46.917C30.615,-46.177 31.75,-45.151 32.625,-43.833C33.51,-42.526 33.958,-40.823 33.958,-38.729C33.844,-37.146 33.406,-35.646 32.646,-34.229C32.297,-33.615 31.875,-33 31.375,-32.375C30.875,-31.75 30.255,-31.151 29.521,-30.583C28.781,-30.026 27.917,-29.505 26.917,-29.021C25.917,-28.547 24.755,-28.151 23.438,-27.833C23.823,-27.875 24.193,-27.906 24.542,-27.937C24.901,-27.964 25.26,-27.979 25.625,-27.979C27.052,-27.979 28.318,-27.812 29.417,-27.479C30.51,-27.146 31.464,-26.708 32.271,-26.167C33.073,-25.625 33.755,-25.005 34.313,-24.312C34.88,-23.615 35.344,-22.917 35.708,-22.208C36.542,-20.51 37.01,-18.594 37.125,-16.458ZM13.188,-8.375C13.089,-7.625 12.917,-6.906 12.667,-6.229C12.469,-5.646 12.193,-5.068 11.833,-4.5C11.484,-3.927 11.026,-3.521 10.458,-3.271C12.734,-3.062 14.677,-2.917 16.292,-2.833C17.901,-2.76 19.214,-2.729 20.229,-2.729L21.604,-2.729C22.005,-2.74 22.333,-2.76 22.583,-2.792C22.875,-2.818 23.115,-2.839 23.313,-2.854C24.005,-2.948 24.75,-3.255 25.542,-3.771C26.344,-4.297 27.094,-5 27.792,-5.875C28.5,-6.75 29.109,-7.76 29.625,-8.917C30.135,-10.083 30.469,-11.365 30.625,-12.771C30.833,-14.656 30.734,-16.354 30.333,-17.854C29.943,-19.354 29.25,-20.625 28.25,-21.667C27.25,-22.708 25.943,-23.505 24.333,-24.062C22.734,-24.615 20.833,-24.896 18.625,-24.896C18.25,-24.896 17.844,-24.88 17.417,-24.854C16.984,-24.839 16.547,-24.812 16.104,-24.771C17.589,-25.479 19,-26.146 20.333,-26.771C21.677,-27.406 22.854,-28.172 23.854,-29.062C24.865,-29.964 25.667,-31.073 26.25,-32.396C26.844,-33.714 27.146,-35.406 27.146,-37.479C27.146,-38.656 26.938,-39.677 26.521,-40.542C26.115,-41.401 25.573,-42.125 24.896,-42.708C24.214,-43.302 23.438,-43.781 22.563,-44.146C21.688,-44.505 20.776,-44.792 19.833,-45C18.901,-45.208 17.969,-45.344 17.042,-45.417C16.109,-45.484 15.24,-45.526 14.438,-45.542C14.354,-41.385 14.271,-37.672 14.188,-34.396C14.104,-31.13 14.021,-28.234 13.938,-25.708C13.865,-23.193 13.802,-21.021 13.75,-19.187C13.693,-17.365 13.63,-15.812 13.563,-14.521C13.422,-11.49 13.297,-9.443 13.188,-8.375Z" style="fill:rgb(12,52,106);fill-rule:nonzero;"/>
            </g>
        </g>
    </g>
    <g transform="matrix(1,0,0,1,362.95,276.159)">
        <g>
            <g>
                <path d="M29.938,-26.708C29.74,-26.609 29.438,-26.443 29.021,-26.208C28.656,-25.969 28.146,-25.63 27.479,-25.187C26.813,-24.74 25.927,-24.135 24.833,-23.375C25.01,-23.708 25.005,-23.964 24.813,-24.146C24.615,-24.323 24.359,-24.448 24.042,-24.521C23.667,-24.615 23.214,-24.651 22.688,-24.625C21.865,-24.552 20.688,-24.469 19.146,-24.375C17.615,-24.292 15.885,-24.214 13.958,-24.146C13.958,-20.521 13.938,-17.562 13.896,-15.271C13.854,-12.99 13.818,-11.214 13.792,-9.937C13.75,-8.448 13.708,-7.354 13.667,-6.646C13.609,-6.187 13.469,-5.74 13.25,-5.312C13.068,-4.922 12.776,-4.51 12.375,-4.083C11.984,-3.651 11.438,-3.271 10.729,-2.937L26.167,-2.937C26.885,-2.937 27.625,-2.979 28.375,-3.062C29.01,-3.13 29.693,-3.24 30.417,-3.396C31.151,-3.562 31.844,-3.802 32.5,-4.125C31.359,-3.052 30.234,-2.234 29.125,-1.667C28.01,-1.094 26.99,-0.687 26.063,-0.437C24.964,-0.146 23.927,0.021 22.958,0.063C20.734,0.063 18.63,0.073 16.646,0.104C14.672,0.13 12.885,0.172 11.292,0.229C9.708,0.297 8.354,0.38 7.229,0.479C6.115,0.589 5.313,0.714 4.813,0.854C5.505,0.146 6.047,-0.547 6.438,-1.229C6.839,-1.906 7.146,-2.667 7.354,-3.5C7.563,-4.344 7.693,-5.297 7.75,-6.354C7.802,-7.406 7.818,-8.667 7.792,-10.125L7.792,-24.083C7.135,-24.083 6.5,-24.089 5.875,-24.104C5.25,-24.13 4.646,-24.172 4.063,-24.229L7.792,-26.167C7.792,-27.385 7.781,-28.672 7.771,-30.021L7.771,-34.375C7.771,-35.917 7.76,-37.573 7.75,-39.354C7.734,-41.146 7.729,-43.094 7.729,-45.208C6.714,-45.208 5.75,-45.214 4.833,-45.229C3.927,-45.255 3.089,-45.297 2.313,-45.354L8.646,-48.708C12.964,-48.708 16.651,-48.734 19.708,-48.792C22.76,-48.859 25.292,-48.922 27.292,-48.979C29.609,-49.073 31.542,-49.172 33.083,-49.271C33.844,-49.271 34.354,-49.208 34.604,-49.083C34.854,-48.958 34.958,-48.818 34.917,-48.667C34.875,-48.51 34.734,-48.354 34.5,-48.187C34.276,-48.031 34.073,-47.927 33.896,-47.875C33.714,-47.776 33.375,-47.583 32.875,-47.292C32.443,-47.042 31.833,-46.646 31.042,-46.104C30.26,-45.573 29.193,-44.854 27.833,-43.937C28.292,-44.437 28.484,-44.802 28.417,-45.042C28.344,-45.292 28.188,-45.469 27.938,-45.583C27.646,-45.693 27.234,-45.75 26.708,-45.75C26.276,-45.708 25.63,-45.667 24.771,-45.625C23.906,-45.594 22.901,-45.552 21.75,-45.5C20.609,-45.458 19.365,-45.417 18.021,-45.375C16.688,-45.333 15.313,-45.297 13.896,-45.271C13.922,-41.646 13.938,-38.385 13.938,-35.5C13.948,-32.609 13.958,-29.964 13.958,-27.562C16.276,-27.589 18.359,-27.63 20.208,-27.687C22.068,-27.74 23.656,-27.802 24.979,-27.875C26.521,-27.958 27.896,-28.031 29.104,-28.104C29.839,-28.13 30.333,-28.083 30.583,-27.958C30.833,-27.844 30.938,-27.708 30.896,-27.542C30.854,-27.385 30.719,-27.229 30.5,-27.062C30.292,-26.896 30.104,-26.776 29.938,-26.708Z" style="fill:rgb(12,52,106);fill-rule:nonzero;"/>
            </g>
        </g>
    </g>
</svg>
